<?xml version="1.0" encoding="UTF-8" standalone="no"?>
<!DOCTYPE svg PUBLIC "-//W3C//DTD SVG 1.1//EN" "http://www.w3.org/Graphics/SVG/1.1/DTD/svg11.dtd">
<svg width="100%" height="100%" viewBox="0 0 383 239" version="1.1" xmlns="http://www.w3.org/2000/svg" xmlns:xlink="http://www.w3.org/1999/xlink" xml:space="preserve" xmlns:serif="http://www.serif.com/" style="fill-rule:evenodd;clip-rule:evenodd;stroke-linecap:round;stroke-linejoin:round;stroke-miterlimit:1.5;">
    <g transform="matrix(1,0,0,1,-652.33,-840.433)">
        <g transform="matrix(1,0,0,1,-403.715,520.174)">
            <g transform="matrix(1,0,0,0.755003,0,86.5953)">
                <path d="M1061.53,364.942C1061.53,346.656 1129.02,320.281 1243.99,317.459C1358.96,314.638 1427.83,341.564 1427.83,364.942C1427.83,391.228 1352.78,413.943 1243.99,417.169C1135.2,420.394 1061.53,383.228 1061.53,364.942Z" style="fill:rgb(44,136,159);"/>
                <clipPath id="_clip1">
                    <path d="M1061.53,364.942C1061.53,346.656 1129.02,320.281 1243.99,317.459C1358.96,314.638 1427.83,341.564 1427.83,364.942C1427.83,391.228 1352.78,413.943 1243.99,417.169C1135.2,420.394 1061.53,383.228 1061.53,364.942Z"/>
                </clipPath>
                <g clip-path="url(#_clip1)">
                    <g transform="matrix(1,0,0,1.3245,0,-114.695)">
                        <path d="M1089.48,381.334C1089.48,381.334 1184.79,365.053 1264.44,363.916C1344.1,362.779 1412.25,381.334 1412.25,381.334C1412.25,381.334 1321.67,437.991 1249.78,437.991C1177.9,437.991 1089.48,381.334 1089.48,381.334Z" style="fill:rgb(14,100,121);"/>
                    </g>
                </g>
            </g>
            <g transform="matrix(0.947254,0,0,1.18921,73.6541,-67.9993)">
                <path d="M1429.46,363.196C1429.46,359.521 1426.44,355.758 1423.53,353.983C1410.12,345.78 1394.68,342.114 1379.36,339.494C1350.29,334.526 1326.97,330.151 1298.2,328.528C1283.68,327.709 1245.27,328.501 1232.79,328.768C1195.57,329.566 1158.52,331.041 1121.55,335.745C1099.51,338.55 1075.09,341.506 1054.4,350.404C1052.57,351.189 1041.01,355.847 1044.14,361.396" style="fill:none;stroke:black;stroke-width:3.72px;"/>
            </g>
        </g>
        <g transform="matrix(1,0,0,1,-23.3779,7.28477)">
            <g transform="matrix(0.937785,-0.347218,0.347218,0.937785,-116.35,313.305)">
                <rect x="541.664" y="834" width="71.295" height="114.17" style="fill:white;"/>
            </g>
            <g transform="matrix(0.973074,0.230494,-0.230494,0.973074,455.039,-49.5141)">
                <rect x="541.664" y="834" width="71.295" height="114.17" style="fill:white;"/>
            </g>
            <g transform="matrix(0.982832,-0.1845,0.1845,0.982832,228.481,167.892)">
                <rect x="541.664" y="834" width="71.295" height="114.17" style="fill:white;"/>
            </g>
            <path d="M695.154,899.642C694.78,899.745 699.359,898.945 700.584,898.568C705.146,897.164 709.225,894.944 713.698,893.266C726.349,888.522 739.39,884.424 752.202,880.153C752.695,879.988 753.649,887.955 754.435,889.918C757.703,898.089 759.411,906.429 761.131,915.03" style="fill:none;stroke:black;stroke-width:4px;"/>
            <path d="M783.468,914.051C783.434,911.348 785.068,908.413 785.405,905.543C786.052,900.049 785.963,894.606 785.963,889.081C785.963,887.282 785.405,882.664 787.638,881.548C789.08,880.826 791.751,883.038 793.218,883.222C801.523,884.26 809.613,885.837 817.771,887.965C826.608,890.27 835.225,892.032 844.278,893.266C847.367,893.688 862.57,893.981 864.367,895.777C865.257,896.668 864.429,903.163 864.367,904.148C864.25,906.025 863.944,907.028 863.53,908.891" style="fill:none;stroke:black;stroke-width:4px;"/>
            <path d="M921.624,907.994C914.987,908.336 915.427,889.072 915.427,885.175C915.427,884.041 914.733,879.73 915.706,878.757C915.959,878.505 920.488,879.316 921.008,879.316C927.571,879.316 933.754,878.788 940.26,877.92C950.777,876.518 961.374,875.409 971.789,873.456C972.545,873.314 979.737,871.081 980.159,871.503C984.451,875.795 986.202,886.273 987.135,891.871" style="fill:none;stroke:black;stroke-width:4px;"/>
        </g>
        <g transform="matrix(1,0,0,1,-400.939,520.174)">
            <path d="M1427.83,361.779L1427.83,361.776C1427.83,361.776 1428.6,366.22 1429.63,370.318C1437.83,403.064 1462.58,550.381 1244.68,552.645C999.51,555.193 1061.53,361.776 1061.53,361.776L1061.55,361.784C1061.54,361.898 1061.53,362.013 1061.53,362.128C1061.53,375.934 1135.2,403.994 1243.99,401.559C1352.78,399.124 1427.83,381.974 1427.83,362.128C1427.83,362.011 1427.83,361.895 1427.83,361.779Z" style="fill:rgb(90,161,179);"/>
            <path d="M1058.06,357.916C1051.02,378.589 1052.6,431.786 1057.57,448.933C1073.52,504.044 1127.52,538.295 1180.47,551.301C1253.82,569.317 1351.15,553.932 1404.13,494.217C1442.94,450.463 1441.25,401.648 1426.94,361.285C1426.58,360.244 1425.43,359.699 1424.39,360.068C1423.35,360.437 1422.81,361.581 1423.17,362.621C1437.05,401.768 1438.78,449.128 1401.13,491.562C1349.1,550.21 1253.46,565.111 1181.42,547.416C1129.79,534.735 1076.96,501.556 1061.41,447.821C1056.58,431.126 1054.99,379.332 1061.84,359.204C1062.2,358.159 1061.64,357.022 1060.59,356.667C1059.55,356.311 1058.41,356.871 1058.06,357.916Z"/>
            <g transform="matrix(0.947254,0,0,1.18921,73.6541,-80.2975)">
                <path d="M1041.21,371.738C1041.21,390.9 1091.93,398.303 1102.3,399.98C1107.71,400.856 1113.14,401.701 1118.59,402.307C1124.31,402.942 1130.06,403.352 1135.81,403.703C1211.84,408.339 1289.55,402.629 1364.76,391.138C1378.69,389.009 1381.54,388.987 1395.01,386.019C1399.2,385.095 1426.53,382.011 1426.65,373.537" style="fill:none;stroke:black;stroke-width:3.72px;"/>
            </g>
        </g>
    </g>
</svg>
