<svg id="Layer_5" data-name="Layer 5" xmlns="http://www.w3.org/2000/svg" xmlns:xlink="http://www.w3.org/1999/xlink" viewBox="0 0 671.93 388"><defs><style>.cls-1,.cls-5,.cls-7{fill:none;}.cls-2{fill:#2c889f;}.cls-2,.cls-4,.cls-8,.cls-9{fill-rule:evenodd;}.cls-3{clip-path:url(#clip-path);}.cls-4{fill:#0e6479;}.cls-5,.cls-7{stroke:#000;stroke-linecap:round;stroke-linejoin:round;}.cls-5{stroke-width:3.72px;}.cls-6{fill:#fff;}.cls-7{stroke-width:6.22px;}.cls-8{fill:#5aa1b3;}</style><clipPath id="clip-path"><path class="cls-1" d="M99,148.5c0-16.59,81.12-40.53,219.31-43.09s221,21.87,221,43.09c0,23.85-90.21,44.47-221,47.4S99,165.09,99,148.5Z"/></clipPath></defs><path class="cls-2" d="M99,148.5c0-16.59,81.12-40.53,219.31-43.09s221,21.87,221,43.09c0,23.85-90.21,44.47-221,47.4S99,165.09,99,148.5Z"/><g class="cls-3"><path class="cls-4" d="M132.56,171.59S247.12,152,342.86,150.65s177.66,20.94,177.66,20.94-108.87,68.1-195.28,68.1S132.56,171.59,132.56,171.59Z"/></g><path class="cls-5" d="M539.11,150.65c0-5.25-3.43-10.63-6.75-13.17-15.27-11.72-32.85-17-50.29-20.71-33.1-7.1-59.65-13.35-92.41-15.67-16.53-1.17-60.26,0-74.47.34-42.38,1.14-84.56,3.25-126.66,10-25.09,4-52.89,8.24-76.45,21-2.09,1.12-15.25,7.78-11.68,15.71"/><rect class="cls-6" x="123.26" y="184.91" width="92.57" height="86.62" transform="translate(-55.5 54.48) rotate(-15.72)"/><rect class="cls-6" x="162.47" y="191.67" width="146.99" height="97.96" transform="translate(-89.9 326.73) rotate(-60.36)"/><rect class="cls-6" x="277.5" y="154.2" width="97.96" height="146.99" transform="translate(-50.37 99.57) rotate(-16.12)"/><rect class="cls-6" x="320.45" y="181.1" width="146.99" height="97.96" transform="translate(31.53 507.18) rotate(-67.69)"/><rect class="cls-6" x="393.66" y="163.26" width="146.99" height="97.96" transform="matrix(0.19, -0.98, 0.98, 0.19, 169.79, 630.41)"/><path class="cls-7" d="M109.2,196.12c-1.29-.22,3.38-.07,3.47-.07,3.63,0,6.38-1.25,9.79-2.45,10.4-3.67,21-7.21,31.83-9.3,11.7-2.26,23.59-3.38,35.25-5.88,2.89-.62,7.65-3.92,10.28-3.92.25,0,1.23,9.22,6.36,22,0,0,.61,1.46,1,1.46,1,0,0-1.95,0-2.93,0-3.62.14-6.83,1.47-10.28,1.86-4.85,16.85-35.46,19.58-38.19.16-.15,4.36,3.65,9.79,6.36,7.11,3.56,23.16,2.11,28.4,7.35,1.17,1.16-2.57,6.24-.49,8.32s17-5.26,19.09-5.87c18-5.29,48.24-12.13,64.14-20.08.07,0,2.66,7.1,2.94,7.84,2.2,5.88,5.35,11.16,7.34,17.13.9,2.7,2,8.32,2,8.32s2-7.81,2.93-11.75c1.47-6.35,5-21.67,9.8-26.43.29-.3,10.8,8.29,11.75,8.81,9.5,5.18,19.61,9.47,30.35,11.26,4.6.77,9.12,1.68,13.71,2.45,1.61.26,5.07,4.09,3.92,2.93-2.61-2.6-.71-33.15,2.44-35.24,2.55-1.7,28.3,6.78,33.3,7.34,14,1.55,28.08,3,42.1,3.92,2.23.14,13.41-.61,14.68,2a1.88,1.88,0,0,1-.49,2c-5.52,5.53-6.63,12-8.32,19.59"/><path class="cls-8" d="M542.59,148.08h0s.92,5.34,2.16,10.26c9.86,39.36,39.61,216.44-222.3,219.16C27.76,380.56,102.3,148.08,102.3,148.08h0c0,.13,0,.27,0,.41,0,16.59,88.55,50.32,219.32,47.4s221-23.55,221-47.4Z"/><path class="cls-9" d="M98.13,143.44c-8.46,24.85-6.56,88.79-.59,109.4,19.17,66.24,84.08,107.41,147.73,123,88.16,21.66,205.15,3.16,268.83-68.61,46.65-52.59,44.62-111.27,27.42-159.78a2.4,2.4,0,1,0-4.53,1.6c16.68,47.06,18.76,104-26.49,155C448,374.57,333,392.48,246.41,371.21,184.35,356,120.85,316.09,102.16,251.5c-5.81-20.07-7.72-82.32.52-106.51a2.4,2.4,0,0,0-4.55-1.55Z"/><path class="cls-5" d="M100.4,148.08c0,27.39,57.75,38,69.55,40.37,6.16,1.25,12.35,2.46,18.55,3.32,6.51.91,13.06,1.5,19.61,2,86.56,6.63,175-1.54,260.67-18,15.86-3,19.11-3.08,34.45-7.32,4.77-1.32,35.88-5.73,36-17.84"/></svg>