<?xml version="1.0" encoding="UTF-8" standalone="no"?>
<!DOCTYPE svg PUBLIC "-//W3C//DTD SVG 1.1//EN" "http://www.w3.org/Graphics/SVG/1.1/DTD/svg11.dtd">
<svg width="100%" height="100%" viewBox="0 0 383 239" version="1.1" xmlns="http://www.w3.org/2000/svg" xmlns:xlink="http://www.w3.org/1999/xlink" xml:space="preserve" xmlns:serif="http://www.serif.com/" style="fill-rule:evenodd;clip-rule:evenodd;stroke-linecap:round;stroke-linejoin:round;stroke-miterlimit:1.5;">
    <g transform="matrix(1,0,0,1,-652.33,-840.433)">
        <rect id="Artboard1" x="0" y="0" width="2224" height="1668" style="fill:none;"/>
        <clipPath id="_clip1">
            <rect id="Artboard11" serif:id="Artboard1" x="0" y="0" width="2224" height="1668"/>
        </clipPath>
        <g clip-path="url(#_clip1)">
            <g transform="matrix(1.27074,0,0,1.79113,-348.01,-103.864)">
                <rect x="607" y="301.514" width="1228.38" height="780.638" style="fill:rgb(233,221,230);stroke:black;stroke-width:2.58px;"/>
            </g>
            <g transform="matrix(1,0,0,1,-403.715,520.174)">
                <g transform="matrix(1,0,0,0.755003,0,86.5953)">
                    <path d="M1061.53,364.942C1061.53,346.656 1129.02,320.281 1243.99,317.459C1358.96,314.638 1427.83,341.564 1427.83,364.942C1427.83,391.228 1352.78,413.943 1243.99,417.169C1135.2,420.394 1061.53,383.228 1061.53,364.942Z" style="fill:rgb(44,136,159);"/>
                    <clipPath id="_clip2">
                        <path d="M1061.53,364.942C1061.53,346.656 1129.02,320.281 1243.99,317.459C1358.96,314.638 1427.83,341.564 1427.83,364.942C1427.83,391.228 1352.78,413.943 1243.99,417.169C1135.2,420.394 1061.53,383.228 1061.53,364.942Z"/>
                    </clipPath>
                    <g clip-path="url(#_clip2)">
                        <g transform="matrix(1,0,0,1.3245,0,-114.695)">
                            <path d="M1089.48,381.334C1089.48,381.334 1184.79,365.053 1264.44,363.916C1344.1,362.779 1412.25,381.334 1412.25,381.334C1412.25,381.334 1321.67,437.991 1249.78,437.991C1177.9,437.991 1089.48,381.334 1089.48,381.334Z" style="fill:rgb(14,100,121);"/>
                        </g>
                    </g>
                </g>
                <g transform="matrix(0.947254,0,0,1.18921,73.6541,-67.9993)">
                    <path d="M1429.46,363.196C1429.46,359.521 1426.44,355.758 1423.53,353.983C1410.12,345.78 1394.68,342.114 1379.36,339.494C1350.29,334.526 1326.97,330.151 1298.2,328.528C1283.68,327.709 1245.27,328.501 1232.79,328.768C1195.57,329.566 1158.52,331.041 1121.55,335.745C1099.51,338.55 1075.09,341.506 1054.4,350.404C1052.57,351.189 1041.01,355.847 1044.14,361.396" style="fill:none;stroke:black;stroke-width:3.72px;"/>
                </g>
            </g>
            <g transform="matrix(1,0,0,1,-27.7917,26.497)">
                <g transform="matrix(0.797346,-0.22447,0.120903,0.429461,61.0942,742.663)">
                    <rect x="680.549" y="712.961" width="92.977" height="161.522" style="fill:white;"/>
                </g>
                <g transform="matrix(0.761886,0.433522,-0.374443,0.658058,535.306,93.1783)">
                    <rect x="680.549" y="712.961" width="92.977" height="161.522" style="fill:white;"/>
                </g>
                <g transform="matrix(0.842142,-0.243327,0.210167,0.727378,88.2452,519.471)">
                    <rect x="680.549" y="712.961" width="92.977" height="161.522" style="fill:white;"/>
                </g>
                <g transform="matrix(0.810961,0.332796,-0.287444,0.700446,562.003,123.967)">
                    <rect x="680.549" y="712.961" width="92.977" height="161.522" style="fill:white;"/>
                </g>
                <g transform="matrix(0.860533,0.167016,-0.144256,0.743262,473.226,195.675)">
                    <rect x="680.549" y="712.961" width="92.977" height="161.522" style="fill:white;"/>
                </g>
                <path d="M686.554,893.63C685.484,893.448 689.372,893.567 689.444,893.567C692.467,893.567 694.755,892.531 697.59,891.53C706.244,888.476 715.02,885.531 724.066,883.792C733.807,881.918 743.693,880.982 753.392,878.904C755.8,878.388 759.763,875.645 761.946,875.645C762.16,875.645 762.976,883.313 767.241,893.974C767.242,893.977 767.744,895.196 768.055,895.196C768.87,895.196 768.055,893.567 768.055,892.752C768.055,889.744 768.172,887.072 769.277,884.199C770.828,880.166 783.297,854.701 785.57,852.428C785.697,852.301 789.193,855.462 793.716,857.724C799.63,860.68 812.983,859.476 817.34,863.833C818.31,864.803 815.206,869.03 816.933,870.758C818.749,872.573 831.083,866.38 832.818,865.87C847.77,861.472 872.946,855.785 886.176,849.17C886.239,849.138 888.39,855.075 888.62,855.687C890.455,860.581 893.073,864.974 894.729,869.943C895.479,872.192 896.359,876.867 896.359,876.867C896.359,876.867 898.047,870.364 898.802,867.092C900.022,861.808 902.982,849.063 906.949,845.097C907.194,844.851 915.936,851.998 916.724,852.428C924.632,856.742 933.039,860.307 941.978,861.797C945.801,862.434 949.561,863.196 953.382,863.833C954.722,864.056 957.601,867.237 956.641,866.277C954.47,864.106 956.057,838.697 958.677,836.951C960.792,835.541 982.217,842.598 986.375,843.06C998.002,844.352 1009.74,845.541 1021.4,846.319C1023.26,846.443 1032.56,845.818 1033.62,847.948C1033.89,848.48 1033.56,849.238 1033.21,849.577C1028.62,854.175 1027.69,859.56 1026.29,865.87" style="fill:none;stroke:black;stroke-width:4px;"/>
            </g>
            <g transform="matrix(1,0,0,1,-400.939,520.174)">
                <path d="M1427.83,361.779L1427.83,361.776C1427.83,361.776 1428.6,366.22 1429.63,370.318C1437.83,403.064 1462.58,550.381 1244.68,552.645C999.51,555.193 1061.53,361.776 1061.53,361.776L1061.55,361.784C1061.54,361.898 1061.53,362.013 1061.53,362.128C1061.53,375.934 1135.2,403.994 1243.99,401.559C1352.78,399.124 1427.83,381.974 1427.83,362.128C1427.83,362.011 1427.83,361.895 1427.83,361.779Z" style="fill:rgb(90,161,179);"/>
                <path d="M1058.06,357.916C1051.02,378.589 1052.6,431.786 1057.57,448.933C1073.52,504.044 1127.52,538.295 1180.47,551.301C1253.82,569.317 1351.15,553.932 1404.13,494.217C1442.94,450.463 1441.25,401.648 1426.94,361.285C1426.58,360.244 1425.43,359.699 1424.39,360.068C1423.35,360.437 1422.81,361.581 1423.17,362.621C1437.05,401.768 1438.78,449.128 1401.13,491.562C1349.1,550.21 1253.46,565.111 1181.42,547.416C1129.79,534.735 1076.96,501.556 1061.41,447.821C1056.58,431.126 1054.99,379.332 1061.84,359.204C1062.2,358.159 1061.64,357.022 1060.59,356.667C1059.55,356.311 1058.41,356.871 1058.06,357.916Z"/>
                <g transform="matrix(0.947254,0,0,1.18921,73.6541,-80.2975)">
                    <path d="M1041.21,371.738C1041.21,390.9 1091.93,398.303 1102.3,399.98C1107.71,400.856 1113.14,401.701 1118.59,402.307C1124.31,402.942 1130.06,403.352 1135.81,403.703C1211.84,408.339 1289.55,402.629 1364.76,391.138C1378.69,389.009 1381.54,388.987 1395.01,386.019C1399.2,385.095 1426.53,382.011 1426.65,373.537" style="fill:none;stroke:black;stroke-width:3.72px;"/>
                </g>
            </g>
        </g>
    </g>
</svg>
