<svg id="Layer_6" data-name="Layer 6" xmlns="http://www.w3.org/2000/svg" xmlns:xlink="http://www.w3.org/1999/xlink" viewBox="0 0 671.93 388"><defs><style>.cls-1,.cls-5,.cls-7{fill:none;}.cls-2{fill:#2c889f;}.cls-2,.cls-4,.cls-8,.cls-9{fill-rule:evenodd;}.cls-3{clip-path:url(#clip-path);}.cls-4{fill:#0e6479;}.cls-5,.cls-7{stroke:#000;stroke-linecap:round;stroke-linejoin:round;}.cls-5{stroke-width:3.72px;}.cls-6{fill:#fff;}.cls-7{stroke-width:6.22px;}.cls-8{fill:#5aa1b3;}</style><clipPath id="clip-path"><path class="cls-1" d="M97.79,147.51c0-16.7,81.61-40.78,220.62-43.35s222.29,22,222.29,43.35c0,24-90.74,44.73-222.29,47.67S97.79,164.2,97.79,147.51Z"/></clipPath></defs><path class="cls-2" d="M97.79,147.51c0-16.7,81.61-40.78,220.62-43.35s222.29,22,222.29,43.35c0,24-90.74,44.73-222.29,47.67S97.79,164.2,97.79,147.51Z"/><g class="cls-3"><path class="cls-4" d="M131.59,170.73S246.83,151,343.14,149.67s178.73,21.06,178.73,21.06-109.53,68.51-196.45,68.51S131.59,170.73,131.59,170.73Z"/></g><path class="cls-5" d="M540.57,149.67c0-5.29-3.46-10.7-6.8-13.25-15.35-11.79-33-17.07-50.59-20.83-33.29-7.15-60-13.44-93-15.77-16.63-1.18-60.62,0-74.91.34-42.63,1.15-85.07,3.27-127.42,10-25.24,4-53.21,8.28-76.91,21.07-2.09,1.13-15.33,7.83-11.75,15.81"/><rect class="cls-6" x="119.08" y="167.33" width="86.21" height="138.05" transform="translate(-71.98 71.02) rotate(-20.32)"/><rect class="cls-6" x="186.23" y="195.85" width="138.05" height="86.21" transform="translate(-36.1 432.25) rotate(-76.67)"/><rect class="cls-6" x="392.16" y="153.63" width="86.21" height="138.05" transform="translate(-33.61 84.13) rotate(-10.63)"/><path class="cls-7" d="M114.67,177.28c-.45.13,5.09-.84,6.57-1.3,5.52-1.7,10.45-4.38,15.86-6.41,15.29-5.74,31.06-10.69,46.55-15.85.6-.2,1.75,9.43,2.7,11.8,4,9.88,6,20,8.1,30.37"/><path class="cls-7" d="M221.46,194.7c0-3.27,1.93-6.81,2.34-10.28a169.63,169.63,0,0,0,.68-19.91c0-2.17-.68-7.76,2-9.11,1.74-.87,5,1.8,6.75,2a229.7,229.7,0,0,1,29.69,5.73A268.45,268.45,0,0,0,295,169.57c3.73.51,22.12.87,24.29,3,1.07,1.07.07,8.93,0,10.12a31.59,31.59,0,0,1-1,5.73"/><path class="cls-7" d="M388.51,187.38c-8,.41-7.49-22.88-7.49-27.59,0-1.37-.84-6.59.33-7.76.31-.31,5.79.67,6.42.67A174.26,174.26,0,0,0,411,151c12.72-1.7,25.53-3,38.13-5.4.91-.17,9.61-2.87,10.12-2.36,5.19,5.19,7.3,17.86,8.43,24.62"/><path class="cls-8" d="M544.06,147.08h0s.93,5.37,2.18,10.33c9.91,39.59,39.84,217.72-223.63,220.46C26.16,381,101.15,147.08,101.15,147.08h0c0,.14,0,.28,0,.42,0,16.69,89.08,50.62,220.62,47.67s222.29-23.68,222.29-47.67Z"/><path class="cls-9" d="M97,142.41c-8.51,25-6.6,89.32-.59,110.06,19.29,66.63,84.58,108,148.61,123.77,88.69,21.79,206.37,3.19,270.43-69,46.93-52.9,44.89-111.93,27.59-160.73a2.42,2.42,0,1,0-4.56,1.61C555.21,195.44,557.3,252.7,511.78,304c-62.91,70.92-178.56,88.93-265.67,67.54C183.69,356.21,119.81,316.1,101,251.12c-5.84-20.19-7.76-82.81.52-107.15A2.41,2.41,0,1,0,97,142.41Z"/><path class="cls-5" d="M99.23,147.08c0,27.55,58.1,38.2,70,40.61,6.2,1.26,12.42,2.48,18.66,3.35,6.55.91,13.14,1.5,19.72,2,87.09,6.67,176.09-1.54,262.24-18.06,15.95-3.06,19.22-3.1,34.65-7.36,4.79-1.33,36.1-5.77,36.24-18"/></svg>