<?xml version="1.0" encoding="UTF-8" standalone="no"?>
<!DOCTYPE svg PUBLIC "-//W3C//DTD SVG 1.1//EN" "http://www.w3.org/Graphics/SVG/1.1/DTD/svg11.dtd">
<svg width="100%" height="100%" viewBox="0 0 384 279" version="1.1" xmlns="http://www.w3.org/2000/svg" xmlns:xlink="http://www.w3.org/1999/xlink" xml:space="preserve" xmlns:serif="http://www.serif.com/" style="fill-rule:evenodd;clip-rule:evenodd;stroke-linecap:round;stroke-linejoin:round;stroke-miterlimit:1.5;">
    <g transform="matrix(1,0,0,1,-651.455,-799.802)">
        <rect id="Artboard1" x="0" y="0" width="2224" height="1668" style="fill:none;"/>
        <clipPath id="_clip1">
            <rect id="Artboard11" serif:id="Artboard1" x="0" y="0" width="2224" height="1668"/>
        </clipPath>
        <g clip-path="url(#_clip1)">
            <g transform="matrix(1.27074,0,0,1.79113,-348.01,-103.864)">
                <rect x="607" y="301.514" width="1228.38" height="780.638" style="fill:rgb(233,221,230);stroke:black;stroke-width:2.58px;"/>
            </g>
            <g transform="matrix(1,0,0,1,-403.715,520.174)">
                <g transform="matrix(1,0,0,0.755003,0,86.5953)">
                    <path d="M1061.53,364.942C1061.53,346.656 1129.02,320.281 1243.99,317.459C1358.96,314.638 1427.83,341.564 1427.83,364.942C1427.83,391.228 1352.78,413.943 1243.99,417.169C1135.2,420.394 1061.53,383.228 1061.53,364.942Z" style="fill:rgb(44,136,159);"/>
                    <clipPath id="_clip2">
                        <path d="M1061.53,364.942C1061.53,346.656 1129.02,320.281 1243.99,317.459C1358.96,314.638 1427.83,341.564 1427.83,364.942C1427.83,391.228 1352.78,413.943 1243.99,417.169C1135.2,420.394 1061.53,383.228 1061.53,364.942Z"/>
                    </clipPath>
                    <g clip-path="url(#_clip2)">
                        <g transform="matrix(1,0,0,1.3245,0,-114.695)">
                            <path d="M1089.48,381.334C1089.48,381.334 1184.79,365.053 1264.44,363.916C1344.1,362.779 1412.25,381.334 1412.25,381.334C1412.25,381.334 1321.67,437.991 1249.78,437.991C1177.9,437.991 1089.48,381.334 1089.48,381.334Z" style="fill:rgb(14,100,121);"/>
                        </g>
                    </g>
                </g>
                <g transform="matrix(0.947254,0,0,1.18921,73.6541,-67.9993)">
                    <path d="M1429.46,363.196C1429.46,359.521 1426.44,355.758 1423.53,353.983C1410.12,345.78 1394.68,342.114 1379.36,339.494C1350.29,334.526 1326.97,330.151 1298.2,328.528C1283.68,327.709 1245.27,328.501 1232.79,328.768C1195.57,329.566 1158.52,331.041 1121.55,335.745C1099.51,338.55 1075.09,341.506 1054.4,350.404C1052.57,351.189 1041.01,355.847 1044.14,361.396" style="fill:none;stroke:black;stroke-width:3.72px;"/>
                </g>
            </g>
            <g transform="matrix(1,0,0,1,2.00658,6.51354)">
                <g transform="matrix(0.956082,-0.293101,0.293101,0.956082,-212.836,267.341)">
                    <rect x="659.332" y="795.682" width="71.965" height="110.223" style="fill:white;"/>
                </g>
                <g transform="matrix(0.950505,0.310711,-0.310711,0.950505,355.317,-160.309)">
                    <rect x="659.332" y="795.682" width="71.965" height="110.223" style="fill:white;"/>
                </g>
                <g transform="matrix(0.967851,-0.251523,0.251523,0.967851,-92.2453,245.057)">
                    <rect x="659.332" y="795.682" width="71.965" height="110.223" style="fill:white;"/>
                </g>
                <g transform="matrix(0.985325,0.170688,-0.170688,0.985325,318.699,-80.0186)">
                    <rect x="659.332" y="795.682" width="71.965" height="110.223" style="fill:white;"/>
                </g>
                <g transform="matrix(0.926456,-0.376403,0.376403,0.926456,-66.9416,338.95)">
                    <rect x="659.332" y="795.682" width="71.965" height="110.223" style="fill:white;"/>
                </g>
                <g transform="matrix(0.975061,0.221935,-0.221935,0.975061,462.405,-106.919)">
                    <rect x="659.332" y="795.682" width="71.965" height="110.223" style="fill:white;"/>
                </g>
                <g transform="matrix(0.998862,-0.0476852,0.0338056,0.708126,266.078,307.658)">
                    <rect x="659.332" y="795.682" width="71.965" height="110.223" style="fill:white;"/>
                </g>
                <path d="M671.593,890.631C667.68,889.321 665.297,882.089 663.089,878.303C656.821,867.558 655.407,858.482 654.503,845.821C654.27,842.565 649.611,834.432 652.261,831.783C652.329,831.714 662.924,832.678 663.808,832.501C671.209,831.021 679.449,827.043 686.786,825.087C693.853,823.202 697.757,823.768 704.797,821.757C705.218,821.636 716.833,817.038 716.917,817.122C717.577,817.782 714.443,838.6 717.229,838.6C719.385,838.6 720.251,831.005 721.776,829.48C724.055,827.201 730.553,827.594 731.667,825.366C734.245,820.209 730.027,806.553 734.073,802.507C735.926,800.654 746.504,805.252 748.511,805.715C761.834,808.79 785.399,809.109 798.347,812.346C804.533,813.893 796.965,820.73 796.458,825.291C796.405,825.775 791.571,834.865 791.823,834.991C792.854,835.507 816.309,831.715 816.921,832.327C818.129,833.535 821.5,850.532 822.703,853.84C824.222,858.017 825.463,862.427 826.312,866.673C826.47,867.46 826.312,869.08 826.312,869.08C826.312,869.08 825.954,865.037 826.312,863.064C827.085,858.813 827.67,854.547 828.318,850.231C829.617,841.571 830.735,832.865 831.526,824.163C831.64,822.908 830.938,818.334 831.927,817.345C832.779,816.493 840.138,818.837 841.151,818.949C848.738,819.793 853.367,820.78 860.812,820.78C861.83,820.78 869.604,816.557 870.828,815.741C879.971,809.646 890.689,805.41 900.505,800.502C902.685,799.412 908.727,795.288 910.932,795.288C911.355,795.288 913.295,802.777 914.14,805.314C915.831,810.386 919.881,828.701 923.364,832.184C923.553,832.372 925.499,825.288 925.771,824.564C927.31,820.458 930.5,810.206 936.599,811.731C947.521,814.461 957.694,821.111 968.682,824.163C978.351,826.849 989.73,823.96 998.76,826.97C1002.08,828.077 996.938,837.18 998.76,839.002C1000.66,840.901 1024.21,834.338 1024.21,836.986C1024.21,849.5 1025.63,866.285 1025.63,878.303" style="fill:none;stroke:black;stroke-width:4px;"/>
            </g>
            <g transform="matrix(1,0,0,1,-400.939,520.174)">
                <path d="M1427.83,361.779L1427.83,361.776C1427.83,361.776 1428.6,366.22 1429.63,370.318C1437.83,403.064 1462.58,550.381 1244.68,552.645C999.51,555.193 1061.53,361.776 1061.53,361.776L1061.55,361.784C1061.54,361.898 1061.53,362.013 1061.53,362.128C1061.53,375.934 1135.2,403.994 1243.99,401.559C1352.78,399.124 1427.83,381.974 1427.83,362.128C1427.83,362.011 1427.83,361.895 1427.83,361.779Z" style="fill:rgb(90,161,179);"/>
                <path d="M1058.06,357.916C1051.02,378.589 1052.6,431.786 1057.57,448.933C1073.52,504.044 1127.52,538.295 1180.47,551.301C1253.82,569.317 1351.15,553.932 1404.13,494.217C1442.94,450.463 1441.25,401.648 1426.94,361.285C1426.58,360.244 1425.43,359.699 1424.39,360.068C1423.35,360.437 1422.81,361.581 1423.17,362.621C1437.05,401.768 1438.78,449.128 1401.13,491.562C1349.1,550.21 1253.46,565.111 1181.42,547.416C1129.79,534.735 1076.96,501.556 1061.41,447.821C1056.58,431.126 1054.99,379.332 1061.84,359.204C1062.2,358.159 1061.64,357.022 1060.59,356.667C1059.55,356.311 1058.41,356.871 1058.06,357.916Z"/>
                <g transform="matrix(0.947254,0,0,1.18921,73.6541,-80.2975)">
                    <path d="M1041.21,371.738C1041.21,390.9 1091.93,398.303 1102.3,399.98C1107.71,400.856 1113.14,401.701 1118.59,402.307C1124.31,402.942 1130.06,403.352 1135.81,403.703C1211.84,408.339 1289.55,402.629 1364.76,391.138C1378.69,389.009 1381.54,388.987 1395.01,386.019C1399.2,385.095 1426.53,382.011 1426.65,373.537" style="fill:none;stroke:black;stroke-width:3.72px;"/>
                </g>
            </g>
        </g>
    </g>
</svg>
