<?xml version="1.0" encoding="UTF-8" standalone="no"?>
<!DOCTYPE svg PUBLIC "-//W3C//DTD SVG 1.1//EN" "http://www.w3.org/Graphics/SVG/1.1/DTD/svg11.dtd">
<svg width="100%" height="100%" viewBox="0 0 500 316" version="1.1" xmlns="http://www.w3.org/2000/svg" xmlns:xlink="http://www.w3.org/1999/xlink" xml:space="preserve" xmlns:serif="http://www.serif.com/" style="fill-rule:evenodd;clip-rule:evenodd;stroke-linecap:round;stroke-linejoin:round;stroke-miterlimit:1.5;">
    <g transform="matrix(1,0,0,1,-634.904,-767.502)">
        <g transform="matrix(1,0,0,1,-403.715,520.174)">
            <g transform="matrix(1,0,0,0.755003,0,86.5953)">
                <path d="M1061.53,364.942C1061.53,346.656 1129.02,320.281 1243.99,317.459C1358.96,314.638 1427.83,341.564 1427.83,364.942C1427.83,391.228 1352.78,413.943 1243.99,417.169C1135.2,420.394 1061.53,383.228 1061.53,364.942Z" style="fill:rgb(44,136,159);"/>
                <clipPath id="_clip1">
                    <path d="M1061.53,364.942C1061.53,346.656 1129.02,320.281 1243.99,317.459C1358.96,314.638 1427.83,341.564 1427.83,364.942C1427.83,391.228 1352.78,413.943 1243.99,417.169C1135.2,420.394 1061.53,383.228 1061.53,364.942Z"/>
                </clipPath>
                <g clip-path="url(#_clip1)">
                    <g transform="matrix(1,0,0,1.3245,0,-114.695)">
                        <path d="M1089.48,381.334C1089.48,381.334 1184.79,365.053 1264.44,363.916C1344.1,362.779 1412.25,381.334 1412.25,381.334C1412.25,381.334 1321.67,437.991 1249.78,437.991C1177.9,437.991 1089.48,381.334 1089.48,381.334Z" style="fill:rgb(14,100,121);"/>
                    </g>
                </g>
            </g>
            <g transform="matrix(0.947254,0,0,1.18921,73.6541,-67.9993)">
                <path d="M1429.46,363.196C1429.46,359.521 1426.44,355.758 1423.53,353.983C1410.12,345.78 1394.68,342.114 1379.36,339.494C1350.29,334.526 1326.97,330.151 1298.2,328.528C1283.68,327.709 1245.27,328.501 1232.79,328.768C1195.57,329.566 1158.52,331.041 1121.55,335.745C1099.51,338.55 1075.09,341.506 1054.4,350.404C1052.57,351.189 1041.01,355.847 1044.14,361.396" style="fill:none;stroke:black;stroke-width:3.72px;"/>
            </g>
        </g>
        <g transform="matrix(1,0,0,1,-2.96995,23.9099)">
            <path d="M958.488,774.517L1007.84,776.105L1007.48,787.293L1061,805.291L1018.47,931.756L976.947,917.793L967.178,964.058L912.074,952.422L892.043,955.467L889.942,941.647L824.845,954.363L817.432,916.415L813.639,929.998L781.976,921.156L778.352,943.991L730.838,936.451L687.934,953.817L637.874,830.139L708.653,801.49L719.429,828.114L723.851,800.248L768.61,807.351L775.982,780.953L849.525,801.49L845.95,814.294L874.206,808.775L876.946,822.804L888.271,821.083L879.56,763.116L955.069,751.768L958.488,774.517Z" style="fill:white;"/>
            <path d="M674.094,887.122C663.582,889.318 664.723,880.444 663.671,871.67C661.724,855.445 658.727,839.048 654.082,823.37C653.216,820.448 646.623,806.908 646.623,804.902C646.623,804.03 658.446,802.553 659.409,802.416C672.467,800.55 685.174,797.089 698.475,797.089C699.667,797.089 708.47,796.125 709.13,797.444C711.453,802.09 712.247,818.701 715.877,826.566C716.208,827.281 718.799,835.089 719.429,835.089C719.452,835.089 719.395,830.708 719.429,830.473C719.702,828.563 720.8,826.209 721.56,824.435C724.16,818.367 726.564,813.461 727.242,806.678C727.26,806.5 727.232,799.22 727.242,799.22C736.571,799.22 747.72,801.314 757.43,802.061C759.48,802.218 766.327,804.36 768.084,803.481C777.68,798.683 775.704,780.946 782.29,774.359C782.753,773.896 785.702,776.349 786.197,776.49C790.543,777.732 794.857,778.94 799.337,779.686C816.555,782.556 836.091,780.928 852.609,786.434C854.354,787.016 847.14,804.439 846.217,809.519C846.13,809.998 844.684,815.5 845.506,815.911C847.439,816.878 859.104,810.879 861.488,810.229C862.603,809.925 874.629,807.871 874.629,807.033C874.629,806.633 873.009,811.987 873.208,813.781C873.42,815.692 879.97,829.052 881.376,829.052C881.5,829.052 884.287,820.858 886.348,809.519C886.745,807.338 887.809,802.744 889.9,801.35C890.999,800.618 894.517,800.549 894.517,799.575C894.517,799.22 881.627,773.906 878.535,760.508C878.068,758.483 876.255,748.957 878.89,748.078C885.84,745.762 897.893,750.564 905.171,750.564C914.185,750.564 923.196,750.62 932.163,749.499C940.004,748.519 948.479,745.592 956.313,745.592C956.905,745.592 956.313,746.776 956.313,747.368C956.313,749.346 956.722,751.096 957.023,753.05C958.021,759.536 958.44,766.174 959.864,772.583C960.044,773.391 960.271,778.292 960.93,778.621C962.216,779.264 969.758,775.729 971.584,775.425C981.501,773.772 991.444,773.35 1001.42,772.583C1003.06,772.457 1013.66,770.265 1014.91,771.518C1015.67,772.273 1013.49,775.615 1013.14,776.49C1011.54,780.476 1008.88,789.042 1008.88,793.182C1008.88,793.513 1013.05,792.151 1013.14,792.117C1015.24,791.329 1018.02,790.898 1020.24,790.696C1027.17,790.066 1036.03,788.598 1042.97,789.986C1047.23,790.838 1041.82,793.665 1044.39,797.089C1046.17,799.462 1049.79,801.52 1052.2,803.126C1060.74,808.818 1084.83,822.865 1088.07,832.603C1088.99,835.363 1074.02,833.01 1069.96,834.024C1058.96,836.774 1048.61,845.106 1039.06,851.071C1034.92,853.659 1029.12,856.038 1029.12,860.305" style="fill:none;stroke:black;stroke-width:4px;"/>
        </g>
        <g transform="matrix(1,0,0,1,46.1531,-10.6512)">
            <g transform="matrix(0.9384,-0.345552,1.33011,0.575851,-1446.58,604.095)">
                <rect x="653.592" y="1072.85" width="106.288" height="57.709" style="fill:white;"/>
            </g>
            <g transform="matrix(0.988372,0.152058,-1.01313,0.855898,1088.16,-17.0363)">
                <rect x="653.592" y="1072.85" width="106.288" height="57.709" style="fill:white;"/>
            </g>
            <g transform="matrix(-0.899151,-0.437639,1.22098,-0.517878,295.222,1915.96)">
                <rect x="653.592" y="1072.85" width="106.288" height="57.709" style="fill:white;"/>
            </g>
            <g transform="matrix(0.993127,0.117038,-0.649269,0.930405,943.509,-46.8704)">
                <rect x="653.592" y="1072.85" width="106.288" height="57.709" style="fill:white;"/>
            </g>
            <path d="M676.837,973.424C653.151,971.196 638.304,979.758 615.19,986.981C610.742,988.371 596.806,989.107 593.513,992.4C593.247,992.667 600.761,995.812 601.396,996.341C606.681,1000.75 612.314,1004.52 618.146,1008.17C621.328,1010.15 628.492,1012.6 628.492,1012.6C628.492,1012.6 620.513,1017.05 617.653,1020.48C615.403,1023.18 593.513,1047.98 593.513,1049.55C593.513,1050.78 600.727,1049.55 601.396,1049.55C607.63,1049.55 613.624,1050.12 619.624,1052.01C635.454,1057.01 649.815,1063.1 666.427,1065.31C672.658,1066.14 678.21,1069.03 684.162,1070.73C685.618,1071.15 688.596,1071.72 688.596,1071.72L686.626,1071.72C686.626,1071.72 689.391,1070.26 690.567,1069.26C695.246,1065.24 699.646,1059.96 703.869,1055.46C706.664,1052.48 729.131,1027.38 731.95,1027.38C731.97,1027.38 730.66,1029.04 730.472,1029.35C729.26,1031.37 724.56,1034.97 724.56,1037.23" style="fill:none;stroke:black;stroke-width:4px;"/>
            <path d="M856.947,1071.39C838.326,1067.75 881.713,1074.6 882.211,1074.67C906.706,1078.17 930.746,1083.98 955.617,1085.02C971.512,1085.68 980.102,1086.64 978.771,1087.98C974.266,1092.48 968.951,1081.35 969.411,1078.12C970.217,1072.48 975.803,1065.7 979.264,1061.37C980.135,1060.28 982.22,1058.42 982.22,1058.42C982.22,1058.42 981.756,1059.92 982.22,1060.39C985.644,1063.81 992.137,1065.27 996.507,1067.28C1006.65,1071.96 1016.95,1075.14 1028.04,1076.15C1030.25,1076.35 1037.6,1077.23 1038.88,1074.67C1040.37,1071.69 1036.1,1069.88 1037.4,1067.28C1043.23,1055.62 1072.15,1049.51 1078.29,1037.23C1078.8,1036.2 1059.1,1029.85 1058.09,1029.35C1043.34,1021.97 1030.42,1012.7 1014.24,1008.17C1003.74,1005.22 987.59,1008.39 978.279,1003.73" style="fill:none;stroke:black;stroke-width:4px;"/>
        </g>
        <g transform="matrix(1,0,0,1,-400.939,520.174)">
            <path d="M1427.83,361.779L1427.83,361.776C1427.83,361.776 1428.6,366.22 1429.63,370.318C1437.83,403.064 1462.58,550.381 1244.68,552.645C999.51,555.193 1061.53,361.776 1061.53,361.776L1061.55,361.784C1061.54,361.898 1061.53,362.013 1061.53,362.128C1061.53,375.934 1135.2,403.994 1243.99,401.559C1352.78,399.124 1427.83,381.974 1427.83,362.128C1427.83,362.011 1427.83,361.895 1427.83,361.779Z" style="fill:rgb(90,161,179);"/>
            <path d="M1058.06,357.916C1051.02,378.589 1052.6,431.786 1057.57,448.933C1073.52,504.044 1127.52,538.295 1180.47,551.301C1253.82,569.317 1351.15,553.932 1404.13,494.217C1442.94,450.463 1441.25,401.648 1426.94,361.285C1426.58,360.244 1425.43,359.699 1424.39,360.068C1423.35,360.437 1422.81,361.581 1423.17,362.621C1437.05,401.768 1438.78,449.128 1401.13,491.562C1349.1,550.21 1253.46,565.111 1181.42,547.416C1129.79,534.735 1076.96,501.556 1061.41,447.821C1056.58,431.126 1054.99,379.332 1061.84,359.204C1062.2,358.159 1061.64,357.022 1060.59,356.667C1059.55,356.311 1058.41,356.871 1058.06,357.916Z"/>
            <g transform="matrix(0.947254,0,0,1.18921,73.6541,-80.2975)">
                <path d="M1041.21,371.738C1041.21,390.9 1091.93,398.303 1102.3,399.98C1107.71,400.856 1113.14,401.701 1118.59,402.307C1124.31,402.942 1130.06,403.352 1135.81,403.703C1211.84,408.339 1289.55,402.629 1364.76,391.138C1378.69,389.009 1381.54,388.987 1395.01,386.019C1399.2,385.095 1426.53,382.011 1426.65,373.537" style="fill:none;stroke:black;stroke-width:3.72px;"/>
            </g>
        </g>
    </g>
</svg>
