<svg id="Layer_1" data-name="Layer 1" xmlns="http://www.w3.org/2000/svg" xmlns:xlink="http://www.w3.org/1999/xlink" viewBox="0 0 671.93 388"><defs><style>.cls-1,.cls-5,.cls-7{fill:none;}.cls-2{fill:#2c889f;}.cls-2,.cls-4,.cls-6,.cls-8,.cls-9{fill-rule:evenodd;}.cls-3{clip-path:url(#clip-path);}.cls-4{fill:#0e6479;}.cls-5,.cls-7{stroke:#000;stroke-linecap:round;stroke-linejoin:round;}.cls-5{stroke-width:3.72px;}.cls-6{fill:#fff;}.cls-7{stroke-width:4.76px;}.cls-8{fill:#5aa1b3;}</style><clipPath id="clip-path"><path class="cls-1" d="M103.93,149.62c0-16.43,80.35-40.14,217.23-42.68S540,128.61,540,149.62c0,23.63-89.35,44-218.87,46.95S103.93,166.06,103.93,149.62Z"/></clipPath></defs><path class="cls-2" d="M103.93,149.62c0-16.43,80.35-40.14,217.23-42.68S540,128.61,540,149.62c0,23.63-89.35,44-218.87,46.95S103.93,166.06,103.93,149.62Z"/><g class="cls-3"><path class="cls-4" d="M137.21,172.49s113.47-19.38,208.3-20.74,176,20.74,176,20.74-107.84,67.45-193.43,67.45S137.21,172.49,137.21,172.49Z"/></g><path class="cls-5" d="M539.9,151.75c0-5.2-3.41-10.53-6.69-13-15.12-11.61-32.54-16.8-49.81-20.51-32.79-7-59.09-13.23-91.53-15.53-16.38-1.16-59.7,0-73.77.34-42,1.13-83.76,3.22-125.45,9.88-24.86,4-52.4,8.15-75.73,20.75-2.06,1.11-15.1,7.71-11.57,15.56"/><path class="cls-6" d="M458.36,49.77l58.76,1.89L516.69,65,580.41,86.4,529.78,237l-49.44-16.63-11.63,55.08-65.6-13.85-23.85,3.63-2.5-16.46-77.51,15.14-8.82-45.18-4.52,16.17-37.69-10.52-4.32,27.18-56.57-9-51.07,20.67L76.66,116l84.26-34.11,12.83,31.7L179,80.4l53.28,8.46,8.78-31.43,87.56,24.45-4.26,15.24L358,90.55l-7.1,8.19,27.16-1.9L364.4,36.19l89.89-13.51Z"/><path class="cls-7" d="M119.78,183.83c-12.52,2.61-11.16-8-12.41-18.4A350.18,350.18,0,0,0,96,107.93c-1-3.48-8.88-19.6-8.88-22,0-1,14.08-2.8,15.22-3,15.55-2.22,30.68-6.34,46.51-6.34,1.42,0,11.9-1.15,12.69.42,2.77,5.53,3.71,25.31,8,34.67.4.85,3.48,10.15,4.23,10.15,0,0,0-5.22,0-5.5a32.33,32.33,0,0,1,2.54-7.18c3.09-7.23,6-13.07,6.76-21.15,0-.21,0-8.87,0-8.87,11.11,0,24.38,2.49,35.94,3.38,2.44.19,10.6,2.74,12.69,1.69,11.42-5.71,9.07-26.83,16.91-34.67.55-.55,4.06,2.37,4.65,2.53a141.63,141.63,0,0,0,15.65,3.81c20.5,3.42,43.75,1.48,63.42,8,2.08.7-6.51,21.44-7.61,27.49-.1.57-1.83,7.12-.85,7.61,2.3,1.15,16.19-6,19-6.77,1.33-.36,15.65-2.8,15.65-3.8,0-.48-1.93,5.9-1.7,8s8.18,18.82,9.73,18.18c13.41-5.53,3.46-9.75,5.92-23.25.47-2.6,1.74-8.07,4.23-9.73,1.3-.87,5.49-.95,5.49-2.11,0-.42-15.34-30.56-19-46.51-.56-2.41-2.72-13.75.42-14.8,8.27-2.76,22.62,3,31.29,3,10.73,0,21.46.07,32.13-1.27,9.34-1.17,19.43-4.65,28.75-4.65.71,0,0,1.41,0,2.11a43.06,43.06,0,0,0,.85,6.77c1.19,7.72,1.69,15.62,3.38,23.25.22,1,.49,6.8,1.27,7.19,1.53.77,10.51-3.44,12.69-3.8,11.8-2,23.64-2.47,35.52-3.39,1.95-.15,14.57-2.76,16.06-1.26.9.89-1.69,4.87-2.11,5.91-1.91,4.75-5.07,15-5.07,19.88,0,.39,5-1.23,5.07-1.27A34.81,34.81,0,0,1,531.88,69c8.25-.75,18.8-2.5,27.06-.85,5.08,1-1.37,4.38,1.69,8.46,2.12,2.82,6.43,5.27,9.3,7.19,10.17,6.77,38.85,23.5,42.71,35.09,1.09,3.29-16.73.48-21.56,1.69-13.1,3.28-25.42,13.2-36.79,20.3-4.93,3.08-11.84,5.91-11.84,11"/><polygon class="cls-6" points="82.62 272.36 201.37 228.63 292.75 268.2 174 311.93 82.62 272.36"/><polygon class="cls-6" points="146.26 277.78 271.33 297.02 201.72 355.83 76.65 336.58 146.26 277.78"/><polygon class="cls-6" points="587.07 365.55 473.29 310.17 557.18 274.59 670.96 329.96 587.07 365.55"/><polygon class="cls-6" points="442.5 310.18 568.17 324.99 523.56 388.91 397.89 374.1 442.5 310.18"/><path class="cls-7" d="M181.53,245.43c-28.2-2.65-45.88,7.54-73.4,16.14-5.29,1.65-21.88,2.53-25.8,6.45-.32.32,8.62,4.06,9.38,4.69a177.82,177.82,0,0,0,19.94,14.08c3.79,2.36,12.32,5.28,12.32,5.28s-9.5,5.3-12.9,9.38c-2.68,3.21-28.74,32.74-28.74,34.61,0,1.46,8.58,0,9.38,0a70.92,70.92,0,0,1,21.7,2.93c18.85,5.95,36,13.2,55.72,15.83,7.42,1,14,4.43,21.12,6.46,1.73.5,5.28,1.17,5.28,1.17h-2.35a35.41,35.41,0,0,0,4.69-2.92c5.57-4.79,10.81-11.08,15.84-16.43,3.33-3.55,30.08-33.43,33.43-33.43,0,0-1.53,2-1.76,2.34-1.44,2.41-7,6.69-7,9.38"/><path class="cls-7" d="M396,362.06c-22.17-4.33,29.48,3.82,30.08,3.91,29.16,4.16,57.78,11.08,87.39,12.32,18.92.78,29.15,1.93,27.57,3.52-5.37,5.36-11.7-7.89-11.15-11.74,1-6.71,7.61-14.78,11.73-19.94a41.52,41.52,0,0,1,3.52-3.51s-.55,1.79,0,2.35c4.08,4.07,11.81,5.81,17,8.2,12.08,5.57,24.34,9.36,37.54,10.56C602.28,368,611,369,612.56,366c1.77-3.55-3.31-5.71-1.76-8.8,6.94-13.88,41.37-21.16,48.68-35.78.6-1.22-22.85-8.78-24.05-9.38-17.56-8.79-32.94-19.82-52.21-25.22-12.5-3.51-31.73.27-42.81-5.28"/><path class="cls-8" d="M543.34,149.21h0s.91,5.3,2.14,10.17c9.76,39,39.23,214.38-220.19,217.07-291.89,3-218-227.24-218-227.24h0c0,.14,0,.28,0,.41,0,16.44,87.71,49.85,217.23,46.95s218.87-23.32,218.87-46.95Z"/><path class="cls-9" d="M103.11,144.61c-8.38,24.61-6.5,87.94-.59,108.36,19,65.61,83.28,106.39,146.32,121.87,87.33,21.45,203.21,3.14,266.28-68,46.21-52.09,44.19-110.21,27.16-158.26a2.38,2.38,0,1,0-4.49,1.59c16.52,46.61,18.58,103-26.24,153.51C449.6,373.54,335.74,391.28,250,370.22c-61.46-15.1-124.36-54.6-142.87-118.57-5.76-19.88-7.65-81.54.51-105.51a2.38,2.38,0,1,0-4.5-1.53Z"/><path class="cls-5" d="M105.35,149.21c0,27.13,57.2,37.61,68.89,40,6.11,1.24,12.23,2.44,18.38,3.3,6.45.89,12.93,1.48,19.42,2,85.74,6.57,173.38-1.52,258.2-17.79,15.7-3,18.92-3,34.11-7.25,4.73-1.3,35.55-5.67,35.68-17.67"/></svg>