<svg id="Layer_4" data-name="Layer 4" xmlns="http://www.w3.org/2000/svg" xmlns:xlink="http://www.w3.org/1999/xlink" viewBox="0 0 671.93 388"><defs><style>.cls-1,.cls-5,.cls-7{fill:none;}.cls-2{fill:#2c889f;}.cls-2,.cls-4,.cls-8,.cls-9{fill-rule:evenodd;}.cls-3{clip-path:url(#clip-path);}.cls-4{fill:#0e6479;}.cls-5,.cls-7{stroke:#000;stroke-linecap:round;stroke-linejoin:round;}.cls-5{stroke-width:3.72px;}.cls-6{fill:#fff;}.cls-7{stroke-width:6.12px;}.cls-8{fill:#5aa1b3;}</style><clipPath id="clip-path"><path class="cls-1" d="M99.51,147.6c0-16.64,81.37-40.65,220-43.22s221.66,21.94,221.66,43.22c0,23.93-90.49,44.61-221.66,47.55S99.51,164.25,99.51,147.6Z"/></clipPath></defs><path class="cls-2" d="M99.51,147.6c0-16.64,81.37-40.65,220-43.22s221.66,21.94,221.66,43.22c0,23.93-90.49,44.61-221.66,47.55S99.51,164.25,99.51,147.6Z"/><g class="cls-3"><path class="cls-4" d="M133.21,170.76s114.91-19.63,211-21,178.22,21,178.22,21-109.22,68.32-195.9,68.32S133.21,170.76,133.21,170.76Z"/></g><path class="cls-5" d="M541,149.76c0-5.27-3.44-10.66-6.77-13.21-15.31-11.76-32.95-17-50.45-20.77-33.2-7.13-59.83-13.4-92.69-15.73-16.58-1.17-60.45,0-74.71.35-42.51,1.14-84.82,3.26-127,10-25.17,4-53.06,8.26-76.69,21-2.09,1.13-15.29,7.8-11.72,15.76"/><rect class="cls-6" x="104.89" y="78.45" width="86.77" height="132.9" transform="translate(-35.96 49.82) rotate(-17.04)"/><rect class="cls-6" x="142.78" y="86.38" width="132.9" height="86.77" transform="translate(20.88 288.32) rotate(-71.9)"/><rect class="cls-6" x="217.5" y="98.52" width="86.77" height="132.9" transform="translate(-33.11 70.92) rotate(-14.57)"/><rect class="cls-6" x="271.46" y="101.52" width="132.9" height="86.77" transform="translate(137.46 453.12) rotate(-80.17)"/><rect class="cls-6" x="341.41" y="64.57" width="86.77" height="132.9" transform="translate(-21.02 154.47) rotate(-22.11)"/><rect class="cls-6" x="383.55" y="101.52" width="132.9" height="86.77" transform="translate(208.84 551.53) rotate(-77.18)"/><rect class="cls-6" x="452.2" y="97.79" width="86.77" height="94.22" transform="translate(-6.35 23.8) rotate(-2.73)"/><path class="cls-7" d="M112.44,161.37c-4.71-1.58-7.59-10.3-10.25-14.86-7.56-13-9.26-23.9-10.35-39.17-.28-3.92-5.9-13.73-2.71-16.92.09-.08,12.86,1.08,13.93.86,8.92-1.78,18.86-6.58,27.7-8.94,8.52-2.27,13.23-1.59,21.72-4,.51-.15,14.51-5.69,14.61-5.59.8.8-3,25.9.38,25.9,2.6,0,3.64-9.16,5.48-11,2.75-2.75,10.58-2.27,11.93-5,3.1-6.22-2-22.68,2.9-27.56,2.23-2.23,15,3.31,17.4,3.87,16.07,3.71,44.48,4.09,60.09,8,7.46,1.87-1.66,10.11-2.27,15.61-.07.58-5.9,11.54-5.59,11.7,1.24.62,29.52-4,30.26-3.22,1.46,1.46,5.52,22,7,25.94A107.68,107.68,0,0,1,299,132.49a13.9,13.9,0,0,1,0,2.9,38.48,38.48,0,0,1,0-7.26c.93-5.12,1.64-10.26,2.42-15.47,1.57-10.44,2.91-20.94,3.87-31.43.14-1.51-.71-7,.48-8.22,1-1,9.9,1.8,11.12,1.93,9.15,1,14.73,2.21,23.71,2.21,1.23,0,10.6-5.09,12.08-6.07,11-7.35,23.94-12.46,35.78-18.38,2.63-1.31,9.91-6.28,12.57-6.28.51,0,2.85,9,3.87,12.08,2,6.12,6.92,28.2,11.12,32.4.23.23,2.57-8.31,2.9-9.19,1.86-4.95,5.7-17.31,13.06-15.47,13.17,3.29,25.43,11.31,38.68,15,11.66,3.24,25.38-.24,36.27,3.39,4,1.33-2.2,12.31,0,14.5s30.68-5.62,30.68-2.43c0,15.09,1.71,35.33,1.71,49.82"/><path class="cls-8" d="M544.51,147.18h0s.93,5.36,2.17,10.3c9.89,39.48,39.73,217.11-223,219.84C28.07,380.39,102.85,147.18,102.85,147.18h0c0,.14,0,.28,0,.41,0,16.65,88.83,50.48,220,47.55s221.66-23.62,221.66-47.55Z"/><path class="cls-9" d="M98.67,142.53c-8.49,24.92-6.58,89.06-.59,109.74C117.31,318.72,182.42,360,246.26,375.69c88.44,21.73,205.79,3.18,269.67-68.82,46.8-52.76,44.76-111.62,27.51-160.28a2.41,2.41,0,0,0-4.55,1.61c16.74,47.2,18.82,104.3-26.57,155.47C449.58,374.38,334.27,392.35,247.41,371c-62.25-15.29-125.95-55.29-144.7-120.08-5.83-20.13-7.74-82.58.52-106.85a2.41,2.41,0,1,0-4.56-1.55Z"/><path class="cls-5" d="M100.94,147.18c0,27.48,57.93,38.09,69.77,40.5,6.18,1.25,12.38,2.46,18.61,3.33,6.53.91,13.1,1.5,19.67,2,86.83,6.65,175.59-1.54,261.49-18,15.91-3.05,19.16-3.09,34.55-7.34,4.78-1.33,36-5.75,36.13-17.9"/></svg>