<?xml version="1.0" encoding="UTF-8" standalone="no"?>
<!DOCTYPE svg PUBLIC "-//W3C//DTD SVG 1.1//EN" "http://www.w3.org/Graphics/SVG/1.1/DTD/svg11.dtd">
<svg width="100%" height="100%" viewBox="0 0 384 305" version="1.1" xmlns="http://www.w3.org/2000/svg" xmlns:xlink="http://www.w3.org/1999/xlink" xml:space="preserve" xmlns:serif="http://www.serif.com/" style="fill-rule:evenodd;clip-rule:evenodd;stroke-linecap:round;stroke-linejoin:round;stroke-miterlimit:1.5;">
    <g transform="matrix(1,0,0,1,-652.33,-773.927)">
        <rect id="Artboard1" x="0" y="0" width="2224" height="1668" style="fill:none;"/>
        <clipPath id="_clip1">
            <rect id="Artboard11" serif:id="Artboard1" x="0" y="0" width="2224" height="1668"/>
        </clipPath>
        <g clip-path="url(#_clip1)">
            <g transform="matrix(1.27074,0,0,1.79113,-348.01,-103.864)">
                <rect x="607" y="301.514" width="1228.38" height="780.638" style="fill:rgb(233,221,230);stroke:black;stroke-width:2.58px;"/>
            </g>
            <g transform="matrix(1,0,0,1,-403.715,520.174)">
                <g transform="matrix(1,0,0,0.755003,0,86.5953)">
                    <path d="M1061.53,364.942C1061.53,346.656 1129.02,320.281 1243.99,317.459C1358.96,314.638 1427.83,341.564 1427.83,364.942C1427.83,391.228 1352.78,413.943 1243.99,417.169C1135.2,420.394 1061.53,383.228 1061.53,364.942Z" style="fill:rgb(44,136,159);"/>
                    <clipPath id="_clip2">
                        <path d="M1061.53,364.942C1061.53,346.656 1129.02,320.281 1243.99,317.459C1358.96,314.638 1427.83,341.564 1427.83,364.942C1427.83,391.228 1352.78,413.943 1243.99,417.169C1135.2,420.394 1061.53,383.228 1061.53,364.942Z"/>
                    </clipPath>
                    <g clip-path="url(#_clip2)">
                        <g transform="matrix(1,0,0,1.3245,0,-114.695)">
                            <path d="M1089.48,381.334C1089.48,381.334 1184.79,365.053 1264.44,363.916C1344.1,362.779 1412.25,381.334 1412.25,381.334C1412.25,381.334 1321.67,437.991 1249.78,437.991C1177.9,437.991 1089.48,381.334 1089.48,381.334Z" style="fill:rgb(14,100,121);"/>
                        </g>
                    </g>
                </g>
                <g transform="matrix(0.947254,0,0,1.18921,73.6541,-67.9993)">
                    <path d="M1429.46,363.196C1429.46,359.521 1426.44,355.758 1423.53,353.983C1410.12,345.78 1394.68,342.114 1379.36,339.494C1350.29,334.526 1326.97,330.151 1298.2,328.528C1283.68,327.709 1245.27,328.501 1232.79,328.768C1195.57,329.566 1158.52,331.041 1121.55,335.745C1099.51,338.55 1075.09,341.506 1054.4,350.404C1052.57,351.189 1041.01,355.847 1044.14,361.396" style="fill:none;stroke:black;stroke-width:3.72px;"/>
                </g>
            </g>
            <g transform="matrix(1,0,0,1,0.6653,7.83062)">
                <g transform="matrix(0.855449,-0.377411,0.403646,0.914915,-73.867,456.967)">
                    <rect x="541.607" y="659.551" width="90.168" height="136.15" style="fill:white;"/>
                </g>
                <g transform="matrix(0.907719,0.22423,-0.239817,0.970818,615.818,39.9951)">
                    <rect x="541.607" y="659.551" width="90.168" height="136.15" style="fill:white;"/>
                </g>
                <g transform="matrix(0.914755,-0.193537,0.206991,0.978343,211.44,268.314)">
                    <rect x="541.607" y="659.551" width="90.168" height="136.15" style="fill:white;"/>
                </g>
                <g transform="matrix(0.932614,0.0668119,-0.0714563,0.997444,301.325,118.578)">
                    <rect x="541.607" y="659.551" width="90.168" height="136.15" style="fill:white;"/>
                </g>
                <g transform="matrix(0.875699,-0.327694,0.350473,0.936573,82.3263,366.772)">
                    <rect x="541.607" y="659.551" width="90.168" height="136.15" style="fill:white;"/>
                </g>
                <path d="M674.856,897.965C674.922,901.141 674.863,882.13 673.985,877.742C673.395,874.792 660.527,845.403 664.106,843.614C684.334,833.5 711.273,825.796 733.261,818.466C737.238,817.141 738.724,835.478 739.548,838.225C743.456,851.254 747.826,863.959 752.121,876.844C752.842,879.007 754.816,883.13 754.816,883.13C754.816,883.13 755.414,879.538 755.714,877.742C759.244,856.558 764.695,837.676 764.695,815.772L764.695,801.402C764.695,801.402 766.365,802.857 767.389,803.198C775.186,805.797 784.874,803.339 792.536,805.893C793.495,806.212 797.656,807.958 796.129,809.485C790.391,815.223 789.973,784.207 793.434,780.746C794.858,779.322 827.086,784.433 836.544,782.542C848.964,780.058 859.907,774.633 871.57,769.968C871.895,769.838 874.66,767.669 875.163,768.172C875.858,768.867 869.431,795.67 874.265,800.504C874.734,800.973 877.635,798.841 877.857,798.708C886.176,793.716 895.617,792.921 904.8,790.625C907.135,790.041 922.168,783.744 923.661,785.236C924.508,786.083 923.661,787.631 923.661,788.829C923.661,805.441 922.894,821.571 924.559,838.225C925.06,843.236 924.745,848.51 925.457,853.493C925.84,856.176 926.355,864.287 926.355,861.576C926.355,846.126 953.501,822.552 960.483,808.587C962.656,804.242 967.207,792.203 972.159,789.727C974.582,788.515 989.193,798.894 992.815,800.504C1004.5,805.7 1017.84,811.026 1029.64,813.976C1030.94,814.301 1033.23,814.433 1033.23,815.772C1033.23,816.029 1023.97,823.148 1023.35,827.447C1020.46,847.659 1024.48,874.247 1012.57,892.112" style="fill:none;stroke:black;stroke-width:4px;"/>
            </g>
            <g transform="matrix(1,0,0,1,-400.939,520.174)">
                <path d="M1427.83,361.779L1427.83,361.776C1427.83,361.776 1428.6,366.22 1429.63,370.318C1437.83,403.064 1462.58,550.381 1244.68,552.645C999.51,555.193 1061.53,361.776 1061.53,361.776L1061.55,361.784C1061.54,361.898 1061.53,362.013 1061.53,362.128C1061.53,375.934 1135.2,403.994 1243.99,401.559C1352.78,399.124 1427.83,381.974 1427.83,362.128C1427.83,362.011 1427.83,361.895 1427.83,361.779Z" style="fill:rgb(90,161,179);"/>
                <path d="M1058.06,357.916C1051.02,378.589 1052.6,431.786 1057.57,448.933C1073.52,504.044 1127.52,538.295 1180.47,551.301C1253.82,569.317 1351.15,553.932 1404.13,494.217C1442.94,450.463 1441.25,401.648 1426.94,361.285C1426.58,360.244 1425.43,359.699 1424.39,360.068C1423.35,360.437 1422.81,361.581 1423.17,362.621C1437.05,401.768 1438.78,449.128 1401.13,491.562C1349.1,550.21 1253.46,565.111 1181.42,547.416C1129.79,534.735 1076.96,501.556 1061.41,447.821C1056.58,431.126 1054.99,379.332 1061.84,359.204C1062.2,358.159 1061.64,357.022 1060.59,356.667C1059.55,356.311 1058.41,356.871 1058.06,357.916Z"/>
                <g transform="matrix(0.947254,0,0,1.18921,73.6541,-80.2975)">
                    <path d="M1041.21,371.738C1041.21,390.9 1091.93,398.303 1102.3,399.98C1107.71,400.856 1113.14,401.701 1118.59,402.307C1124.31,402.942 1130.06,403.352 1135.81,403.703C1211.84,408.339 1289.55,402.629 1364.76,391.138C1378.69,389.009 1381.54,388.987 1395.01,386.019C1399.2,385.095 1426.53,382.011 1426.65,373.537" style="fill:none;stroke:black;stroke-width:3.72px;"/>
                </g>
            </g>
        </g>
    </g>
</svg>
