<svg id="Layer_2" data-name="Layer 2" xmlns="http://www.w3.org/2000/svg" xmlns:xlink="http://www.w3.org/1999/xlink" viewBox="0 0 671.93 388"><defs><style>.cls-1,.cls-5{fill:none;}.cls-2{fill:#2c889f;}.cls-2,.cls-4,.cls-6,.cls-7{fill-rule:evenodd;}.cls-3{clip-path:url(#clip-path);}.cls-4{fill:#0e6479;}.cls-5{stroke:#000;stroke-linecap:round;stroke-linejoin:round;stroke-width:3.72px;}.cls-6{fill:#5aa1b3;}</style><clipPath id="clip-path"><path class="cls-1" d="M99.87,147.72c0-16.58,81-40.5,219.13-43.06s220.79,21.86,220.79,43.06c0,23.83-90.14,44.43-220.79,47.36S99.87,164.3,99.87,147.72Z"/></clipPath></defs><path class="cls-2" d="M99.87,147.72c0-16.58,81-40.5,219.13-43.06s220.79,21.86,220.79,43.06c0,23.83-90.14,44.43-220.79,47.36S99.87,164.3,99.87,147.72Z"/><g class="cls-3"><path class="cls-4" d="M133.43,170.79s114.47-19.56,210.13-20.92,177.52,20.92,177.52,20.92-108.79,68-195.13,68S133.43,170.79,133.43,170.79Z"/></g><path class="cls-5" d="M539.65,149.87c0-5.25-3.43-10.63-6.74-13.16-15.26-11.72-32.83-17-50.25-20.69-33.08-7.1-59.61-13.35-92.34-15.67-16.51-1.17-60.21,0-74.41.35-42.34,1.14-84.49,3.24-126.55,10-25.07,4-52.86,8.23-76.39,20.94-2.09,1.12-15.24,7.77-11.68,15.7"/><path class="cls-6" d="M543.12,147.3h0s.93,5.33,2.16,10.26c9.85,39.32,39.58,216.25-222.12,219-294.45,3.06-220-229.23-220-229.23h0c0,.13,0,.27,0,.41,0,16.58,88.48,50.28,219.13,47.36s220.79-23.53,220.79-47.36Z"/><path class="cls-7" d="M99,142.66c-8.45,24.83-6.56,88.72-.59,109.31,19.16,66.19,84,107.32,147.61,122.94,88.09,21.64,205,3.16,268.61-68.55,46.61-52.55,44.58-111.18,27.39-159.65a2.4,2.4,0,1,0-4.52,1.6c16.67,47,18.74,103.9-26.47,154.86-62.49,70.43-177.35,88.33-263.87,67.08-62-15.23-125.46-55.08-144.13-119.61-5.81-20-7.72-82.26.51-106.43A2.4,2.4,0,1,0,99,142.66Z"/><path class="cls-5" d="M101.3,147.3c0,27.37,57.7,37.94,69.49,40.33,6.16,1.25,12.34,2.46,18.54,3.33,6.5.9,13,1.49,19.59,2,86.49,6.62,174.9-1.53,260.46-17.94,15.85-3,19.09-3.08,34.41-7.32,4.77-1.32,35.86-5.72,36-17.82"/></svg>