<svg id="Layer_3" data-name="Layer 3" xmlns="http://www.w3.org/2000/svg" xmlns:xlink="http://www.w3.org/1999/xlink" viewBox="0 0 671.93 388"><defs><style>.cls-1,.cls-5,.cls-7{fill:none;}.cls-2{fill:#2c889f;}.cls-2,.cls-4,.cls-8,.cls-9{fill-rule:evenodd;}.cls-3{clip-path:url(#clip-path);}.cls-4{fill:#0e6479;}.cls-5,.cls-7{stroke:#000;stroke-linecap:round;stroke-linejoin:round;}.cls-5{stroke-width:3.72px;}.cls-6{fill:#fff;}.cls-7{stroke-width:6.17px;}.cls-8{fill:#5aa1b3;}</style><clipPath id="clip-path"><path class="cls-1" d="M100.72,148.23c0-16.5,80.67-40.3,218.1-42.85s219.75,21.75,219.75,42.85c0,23.72-89.71,44.22-219.75,47.14S100.72,164.73,100.72,148.23Z"/></clipPath></defs><path class="cls-2" d="M100.72,148.23c0-16.5,80.67-40.3,218.1-42.85s219.75,21.75,219.75,42.85c0,23.72-89.71,44.22-219.75,47.14S100.72,164.73,100.72,148.23Z"/><g class="cls-3"><path class="cls-4" d="M134.13,171.19s113.93-19.46,209.14-20.82S520,171.19,520,171.19s-108.28,67.73-194.21,67.73S134.13,171.19,134.13,171.19Z"/></g><path class="cls-5" d="M538.44,150.37c0-5.22-3.42-10.57-6.72-13.1-15.18-11.66-32.67-16.87-50-20.59-32.92-7.06-59.32-13.28-91.9-15.59-16.44-1.16-59.93,0-74.06.34-42.15,1.14-84.1,3.23-126,9.92-24.95,4-52.6,8.19-76,20.84-2.07,1.11-15.16,7.73-11.62,15.62"/><rect class="cls-6" x="129.28" y="98.88" width="100.78" height="162.75" transform="translate(-57.47 87.86) rotate(-23.81)"/><rect class="cls-6" x="399.7" y="101.99" width="162.75" height="100.78" transform="translate(217.77 582.87) rotate(-76.12)"/><rect class="cls-6" x="340.87" y="57.49" width="100.78" height="162.75" transform="translate(-20.27 83.99) rotate(-11.95)"/><rect class="cls-6" x="187.67" y="108.69" width="162.75" height="100.78" transform="translate(91.15 416.06) rotate(-85.9)"/><rect class="cls-6" x="283.94" y="44.77" width="100.78" height="162.75" transform="translate(-23 125.17) rotate(-20.52)"/><path class="cls-7" d="M123.65,176.31c.08,3.8,0-18.92-1-24.17-.71-3.52-16.09-38.65-11.81-40.79,24.18-12.09,56.38-21.3,82.66-30.06,4.76-1.59,6.53,20.33,7.52,23.62,4.67,15.57,9.89,30.76,15,46.16.86,2.58,3.22,7.51,3.22,7.51s.71-4.29,1.07-6.44C224.52,126.82,231,104.25,231,78.07V60.89A13.82,13.82,0,0,0,234.26,63c9.32,3.1,20.9.16,30.06,3.22,1.14.38,6.12,2.47,4.29,4.29-6.86,6.86-7.36-30.21-3.22-34.35,1.7-1.7,40.22,4.41,51.53,2.15,14.85-3,27.93-9.46,41.87-15,.39-.15,3.69-2.74,4.29-2.14.83.83-6.85,32.87-1.07,38.65.56.56,4-2,4.29-2.15,9.95-6,21.23-6.92,32.21-9.66,2.79-.7,20.76-8.23,22.54-6.44,1,1,0,2.86,0,4.29,0,19.86-.91,39.14,1.08,59.05.6,6,.22,12.29,1.07,18.25.46,3.2,1.07,12.9,1.07,9.66,0-18.47,32.45-46.65,40.8-63.34,2.6-5.2,8-19.59,14-22.55,2.89-1.45,20.36,11,24.69,12.89,14,6.21,29.91,12.57,44,16.1,1.55.39,4.29.55,4.29,2.15,0,.3-11.07,8.81-11.81,14-3.46,24.16,1.35,55.94-12.89,77.3"/><path class="cls-8" d="M541.89,147.81h0s.92,5.31,2.15,10.21C553.84,197.16,583.43,373.26,323,376,29.9,379,104,147.81,104,147.81h0c0,.14,0,.27,0,.41,0,16.5,88.06,50.05,218.1,47.14S541.89,172,541.89,148.23Z"/><path class="cls-9" d="M99.89,143.2c-8.42,24.71-6.53,88.3-.59,108.79,19.07,65.88,83.62,106.82,146.91,122.37,87.68,21.53,204,3.14,267.35-68.24,46.39-52.3,44.37-110.65,27.27-158.9a2.39,2.39,0,0,0-4.51,1.6C552.91,195.62,555,252.23,510,303c-62.19,70.1-176.51,87.92-262.62,66.76-61.72-15.15-124.87-54.81-143.46-119-5.77-19.95-7.67-81.86.52-105.92a2.39,2.39,0,1,0-4.52-1.54Z"/><path class="cls-5" d="M102.14,147.81c0,27.24,57.43,37.77,69.17,40.15,6.13,1.24,12.28,2.45,18.45,3.31,6.48.9,13,1.48,19.5,2,86.08,6.59,174.07-1.53,259.23-17.86,15.78-3,19-3.06,34.26-7.28,4.74-1.31,35.69-5.69,35.82-17.74"/></svg>