<?xml version="1.0" encoding="UTF-8" standalone="no"?>
<!DOCTYPE svg PUBLIC "-//W3C//DTD SVG 1.1//EN" "http://www.w3.org/Graphics/SVG/1.1/DTD/svg11.dtd">
<svg width="100%" height="100%" viewBox="0 0 450 307" version="1.1" xmlns="http://www.w3.org/2000/svg" xmlns:xlink="http://www.w3.org/1999/xlink" xml:space="preserve" xmlns:serif="http://www.serif.com/" style="fill-rule:evenodd;clip-rule:evenodd;stroke-linecap:round;stroke-linejoin:round;stroke-miterlimit:1.5;">
    <g transform="matrix(1,0,0,1,-1287.29,-753.493)">
        <path d="M1500.3,885.904L1519.9,753.493L1736.8,804.291L1689.68,949.769L1500.3,885.904Z" style="fill:rgb(209,199,199);"/>
        <g transform="matrix(1,0,0,1,0.894081,-2.5082)">
            <path d="M1628.03,1062.56L1689.68,949.769L1500.3,883.923L1415.68,963.174L1628.03,1062.56Z" style="fill:rgb(209,199,199);"/>
        </g>
        <path d="M1296.32,1005.6C1295.9,1005.76 1348.72,944.351 1348.52,943.948C1348.15,943.209 1349.04,941.342 1349.21,940.647C1349.68,938.798 1349.7,936.793 1349.91,934.912C1350.2,932.318 1349.91,929.542 1349.91,926.92C1349.91,926.532 1349.66,924.734 1349.91,924.487C1351.28,923.121 1350.97,920.797 1351.82,919.1C1353,916.748 1354.65,914.782 1356.34,912.671C1360.38,907.618 1364.01,902.754 1368.33,897.902C1372.52,893.183 1378.57,889.475 1381.71,883.827C1383.98,879.732 1386.73,875.862 1388.83,871.664C1390.09,869.145 1390.62,863.644 1393.35,862.281C1398.37,859.771 1402.73,864.761 1402.73,869.405C1402.73,878.371 1396.77,886.932 1393.7,895.121C1391.99,899.675 1390.14,904.325 1387.96,908.675C1387.4,909.799 1386.21,912.609 1387.96,913.192C1389.89,913.836 1391.84,911.571 1393,910.412C1396.46,906.957 1399.8,903.101 1403.95,900.508C1413,894.854 1422.47,890.293 1431.92,885.565C1440.13,881.463 1448.87,876.833 1457.99,875.313C1464.24,874.271 1473.56,870.518 1477.8,876.877C1481.01,881.699 1474.31,885.341 1471.54,887.65C1462.85,894.893 1452.93,900.869 1445.13,908.675C1443.41,910.396 1448.1,911.255 1447.04,913.366C1446.45,914.555 1446.85,916.387 1446.52,917.71C1444.28,926.653 1447.63,931.533 1452.43,938.735C1454.42,941.718 1460.5,947.542 1459.2,951.42C1457.42,956.775 1450.22,952.537 1448.08,956.806C1447.45,958.076 1446.55,960.247 1445.65,961.15C1442.47,964.335 1436.33,965.088 1432.27,967.406C1425.23,971.431 1419.55,977.852 1412.64,982.175C1408.46,984.782 1404.04,986.745 1399.95,989.473C1397.73,990.956 1394.96,992.644 1392.48,993.47C1389.47,994.474 1385.56,994.621 1382.92,996.597C1374.4,1002.99 1366.52,1012 1359.46,1020.06C1356.05,1023.96 1352.44,1028.25 1348.35,1031.52C1346.92,1032.67 1345.8,1034.07 1344.52,1035.35C1344.08,1035.78 1342.13,1037.43 1342.78,1037.43" style="fill:rgb(234,55,186);"/>
        <g transform="matrix(1,0,0,1,-6.02355,-2.9671)">
            <path d="M1296.32,1005.6C1295.9,1005.76 1348.72,944.351 1348.52,943.948C1348.15,943.209 1349.04,941.342 1349.21,940.647C1349.68,938.798 1349.7,936.793 1349.91,934.912C1350.2,932.318 1349.91,929.542 1349.91,926.92C1349.91,926.532 1349.66,924.734 1349.91,924.487C1351.28,923.121 1350.97,920.797 1351.82,919.1C1353,916.748 1354.65,914.782 1356.34,912.671C1360.38,907.618 1364.01,902.754 1368.33,897.902C1372.52,893.183 1378.57,889.475 1381.71,883.827C1383.98,879.732 1386.73,875.862 1388.83,871.664C1390.09,869.145 1390.62,863.644 1393.35,862.281C1398.37,859.771 1402.73,864.761 1402.73,869.405C1402.73,878.371 1396.77,886.932 1393.7,895.121C1391.99,899.675 1390.14,904.325 1387.96,908.675C1387.4,909.799 1386.21,912.609 1387.96,913.192C1389.89,913.836 1391.84,911.571 1393,910.412C1396.46,906.957 1399.8,903.101 1403.95,900.508C1413,894.854 1422.47,890.293 1431.92,885.565C1440.13,881.463 1448.87,876.833 1457.99,875.313C1464.24,874.271 1473.56,870.518 1477.8,876.877C1481.01,881.699 1474.31,885.341 1471.54,887.65C1462.85,894.893 1452.93,900.869 1445.13,908.675C1443.41,910.396 1448.1,911.255 1447.04,913.366C1446.45,914.555 1446.85,916.387 1446.52,917.71C1444.28,926.653 1447.63,931.533 1452.43,938.735C1454.42,941.718 1460.5,947.542 1459.2,951.42C1457.42,956.775 1450.22,952.537 1448.08,956.806C1447.45,958.076 1446.55,960.247 1445.65,961.15C1442.47,964.335 1436.33,965.088 1432.27,967.406C1425.23,971.431 1419.55,977.852 1412.64,982.175C1408.46,984.782 1404.04,986.745 1399.95,989.473C1397.73,990.956 1394.96,992.644 1392.48,993.47C1389.47,994.474 1385.56,994.621 1382.92,996.597C1374.4,1002.99 1366.52,1012 1359.46,1020.06C1356.05,1023.96 1352.44,1028.25 1348.35,1031.52C1346.92,1032.67 1345.8,1034.07 1344.52,1035.35C1344.08,1035.78 1342.13,1037.43 1342.78,1037.43" style="fill:none;stroke:black;stroke-width:6px;"/>
        </g>
        <path d="M1627.08,1051.97L1686.89,937.691L1506.19,882.949L1436.32,962.038L1627.08,1051.97Z" style="fill:none;stroke:black;stroke-width:6px;"/>
        <path d="M1463.09,909.414C1461.57,909.252 1465.92,908.839 1466.5,908.675C1468.13,908.21 1472.34,906.121 1473.97,906.937C1478.64,909.27 1478.14,914.563 1478.14,918.753C1478.14,920.175 1478.59,922.445 1478.14,923.792C1476.88,927.598 1476.75,931.786 1472.06,933.349C1470.7,933.802 1469.31,932.874 1468.59,931.785C1468.37,931.453 1467.3,929.074 1467.02,929.352C1466.27,930.106 1467.82,931.318 1468.41,931.437C1470.99,931.953 1472.62,932.587 1474.84,933.696C1476.48,934.515 1474.62,941.148 1474.15,942.558C1473.43,944.703 1468.12,950.49 1465.46,949.161C1464.16,948.514 1463.11,942.69 1462.68,942.905C1461.22,943.637 1461.81,946.787 1461.81,948.292C1461.81,949.05 1461.04,950.403 1461.46,951.246C1462.86,954.035 1467.6,958.549 1464.94,962.54C1463.47,964.739 1460.01,969.642 1456.42,968.448C1451.8,966.907 1449.32,964.82 1446.87,962.367C1445.14,960.643 1445.64,955.286 1446.35,953.157C1447.32,950.25 1445.71,945.384 1447.04,942.732C1449.49,937.843 1450.94,932.212 1453.3,926.92C1455.26,922.5 1455.13,915.782 1457.99,911.976C1458.52,911.264 1463.03,907.066 1463.03,907.98" style="fill:rgb(234,55,186);"/>
        <path d="M1462.3,907.834C1462.26,907.827 1460.73,907.815 1460.73,907.472C1460.73,906.054 1463.54,907.941 1464.96,907.941C1468.55,907.941 1472.05,908.036 1475.29,909.115C1479.95,910.669 1478.73,922.651 1476.93,926.256C1475.33,929.457 1474.15,932.839 1469.42,931.657C1467.43,931.161 1465.7,929.842 1463.78,929.074C1462.79,928.679 1461.2,927.195 1461.2,927.195C1461.2,927.195 1463.3,929.538 1464.72,930.013C1466.43,930.583 1468.79,930.789 1470.12,932.126C1473.14,935.143 1472.94,940.372 1472.94,944.336C1472.94,945.418 1473.68,947.818 1472.94,948.563C1469.27,952.231 1461.61,945.722 1459.79,942.693C1459.17,941.653 1458.4,940.601 1457.68,939.64C1457.48,939.382 1456.44,937.762 1456.5,937.762C1459.22,937.762 1458.53,945.346 1459.32,946.919C1462.16,952.598 1468.33,962.331 1462.61,968.052C1457.42,973.242 1445.72,968.587 1444.06,961.947C1443.21,958.543 1444.66,957.932 1445.94,955.372C1446.58,954.092 1445.94,950.974 1445.94,949.502C1445.94,947.841 1446.17,945.506 1445.47,944.101C1445.07,943.303 1442.93,941.988 1443.82,941.988C1444.21,941.988 1444.44,942.476 1444.76,942.693" style="fill:none;stroke:black;stroke-width:6px;"/>
        <g transform="matrix(1,0,0,1,-7.64114,0)">
            <path d="M1409.39,816.751C1413.46,811.933 1427.47,815.327 1441.16,816.751C1455.01,818.191 1471.09,818.191 1473,823.332C1474.91,828.467 1470.32,855.874 1468.02,883.923C1465.53,914.139 1464.9,945.1 1455.01,949.769C1446.81,953.634 1436.99,950.422 1427.82,949.769C1415.64,948.9 1404.63,948.925 1400.35,940.767C1396.61,933.632 1402.85,902.964 1404.67,875.545C1406.49,848.018 1405.46,821.409 1409.39,816.751Z" style="fill:rgb(90,161,178);"/>
        </g>
        <g transform="matrix(0.905476,0,0,0.934136,131.635,62.6786)">
            <path d="M1409.39,816.751C1413.46,811.933 1427.47,815.327 1441.16,816.751C1455.01,818.191 1471.09,818.191 1473,823.332C1474.91,828.467 1470.32,855.874 1468.02,883.923C1465.53,914.139 1464.9,945.1 1455.01,949.769C1446.81,953.634 1436.99,950.422 1427.82,949.769C1415.64,948.9 1404.63,948.925 1400.35,940.767C1396.61,933.632 1402.85,902.964 1404.67,875.545C1406.49,848.018 1405.46,821.409 1409.39,816.751Z" style="fill:none;stroke:black;stroke-width:6.52px;"/>
        </g>
        <path d="M1506.19,882.949L1523.04,758.412L1727.83,814.257L1686.89,937.691L1506.19,882.949Z" style="fill:none;stroke:black;stroke-width:6px;"/>
        <path d="M1533.55,774.053L1518.96,874.087L1680,923.119L1710.57,823.305L1533.55,774.053Z" style="fill:rgb(90,161,178);stroke:black;stroke-width:6px;"/>
        <path d="M1630.12,905.115L1637.1,898.753L1645,895.818L1645,886.465L1637.1,883.025L1641.71,877.151L1647.87,875.118L1651.82,870.129L1660.59,865.028L1665.87,877.151L1665.87,879.821L1675.32,883.025L1678.33,888.743L1675.32,892.419L1665.87,886.465L1661.9,892.419L1657.31,898.753L1668.19,907.198L1670.88,917.451L1630.12,905.115Z" style="fill:white;"/>
        <path d="M1548.64,829.525L1554.31,821.256L1559.5,814.479L1556.6,803.594L1556.6,793.149L1565.64,788.209L1582.64,793.149L1590.68,803.594L1587.05,813.805L1575.5,814.479L1575.5,821.256L1580.2,833.252L1582.64,840.095L1548.64,829.525Z" style="fill:white;"/>
        <path d="M1620.01,798.11L1595,897.239" style="fill:none;stroke:black;stroke-width:6px;"/>
        <path d="M1632.26,856.439L1637.76,840.095L1632.26,834L1632.26,823.305L1641.79,817.965L1648.14,814.152L1666.96,823.305L1678.33,828.452L1678.33,834L1676,848.586L1670.45,849.212L1664.2,849.212L1660.98,865.028L1632.26,856.439Z" style="fill:rgb(234,55,186);"/>
        <g transform="matrix(0.98078,0,0,1.24461,32.5835,-214.7)">
            <path d="M1524.03,834L1694.15,875.629" style="fill:none;stroke:black;stroke-width:5.35px;"/>
        </g>
        <path d="M1416.07,852.6C1414.38,852.469 1415.12,856.861 1415.12,857.993C1415.12,862.423 1415.49,866.823 1415.49,871.271C1415.49,871.779 1416.15,874.543 1415.68,875.011C1415.18,875.515 1414.93,874.079 1414.93,873.889" style="fill:none;stroke:white;stroke-width:6px;"/>
        <path d="M1414.28,853.713C1414.16,853.628 1413.24,852.956 1413.44,852.757C1413.94,852.255 1415.78,852.139 1416.43,852.009C1418.91,851.511 1426.08,849.89 1426.71,853.692C1427.26,856.967 1419.65,860.671 1417.36,861.92C1416.09,862.615 1413.44,863.791 1413.44,863.791C1413.44,863.791 1416.31,863.576 1417.74,863.417C1420.35,863.126 1428.96,863.09 1429.52,866.97C1430.18,871.619 1421.69,874.582 1418.3,875.198C1417.53,875.339 1412.42,876.321 1413.62,876.321" style="fill:none;stroke:white;stroke-width:6px;"/>
        <path d="M1439.65,856.46C1439.59,856.183 1439.6,857.799 1439.62,857.993C1439.73,859.015 1439.91,859.957 1439.99,860.985C1440.31,865.109 1440.37,869.176 1440.37,873.328C1440.37,874.162 1440.82,879.576 1439.81,878.565" style="fill:none;stroke:white;stroke-width:6px;"/>
        <path d="M1438.58,857.226C1438.07,856.222 1441.09,856.298 1441.67,856.123C1443.32,855.629 1451.01,854.086 1450.28,854.814" style="fill:none;stroke:white;stroke-width:6px;"/>
        <path d="M1439.87,868.245C1439.77,868.253 1451.01,865.951 1448.97,866.97" style="fill:none;stroke:white;stroke-width:6px;"/>
        <path d="M1417.28,892.039C1415.14,891.969 1413.92,896.076 1413.44,898.762C1413.1,900.597 1412.46,902.869 1412.88,904.747C1413.74,908.635 1420.58,911.389 1424.1,909.983C1430.42,907.454 1430.81,896.569 1425.4,892.965C1422.56,891.065 1417.35,889.363 1414.93,892.591" style="fill:none;stroke:white;stroke-width:6px;"/>
        <path d="M1436,914.915C1435.91,912.973 1436.88,911.03 1437.04,909.053C1437.18,907.403 1437.63,905.778 1437.75,904.122C1437.79,903.392 1437.55,900.167 1438.45,899.719C1438.89,899.496 1440.07,901.722 1440.21,902.008C1441.72,905.024 1442.74,908.3 1444.26,911.342C1444.48,911.778 1446.24,915.457 1447.08,915.04C1447.86,914.651 1447.87,912.591 1447.96,911.87C1448.45,907.928 1448.76,904.002 1449.54,900.071C1449.86,898.476 1450.51,896.923 1450.78,895.316C1450.84,894.935 1451.13,892.822 1451.13,893.203" style="fill:none;stroke:white;stroke-width:6px;"/>
        <path d="M1532.03,875.118L1527.32,865.028L1537.46,845.627L1556.7,840.095L1569.66,845.627L1573.18,855.942L1579.89,867.968L1576.32,883.299L1573.18,888.743L1532.03,875.118Z" style="fill:rgb(234,55,186);"/>
        <path d="M1558.62,809.17L1564.03,799.523L1570.8,795.733L1579.89,799.523L1577.95,814.152L1584.48,814.152L1588.95,809.17L1588.95,799.523L1577.95,789.654L1558.62,789.654L1553.61,795.733L1558.62,809.17Z" style="fill:rgb(64,125,140);"/>
        <path d="M1548.91,830.408C1548.29,830.358 1548.91,828.861 1548.99,828.511C1549.69,825.727 1550.34,824.479 1552.12,822.093C1553.08,820.818 1554.6,820.058 1556.04,820.058C1557.09,820.058 1558.43,821.113 1559.17,820.371C1559.96,819.58 1559.33,814.723 1559.33,813.64C1559.33,809.083 1560.75,804.849 1562.77,800.804C1563.55,799.236 1564.78,796.739 1566.68,796.264C1570.19,795.388 1577.65,795.524 1578.74,799.865C1579.44,802.677 1578.14,804.913 1577.48,807.535C1576.61,811.028 1576.95,814.671 1576.08,818.18C1575.85,819.081 1574.8,821.246 1574.04,821.623C1573.82,821.731 1572.01,822.323 1572.01,822.563C1572.01,822.894 1575.81,824.998 1576.39,825.38C1580.81,828.328 1580.85,831.244 1582.34,835.712C1582.57,836.408 1582.89,839.544 1582.34,840.095" style="fill:none;stroke:black;stroke-width:6px;"/>
        <path d="M1559.92,810.615C1558.57,810.773 1557.85,808.033 1557.29,806.909C1556.68,805.696 1555.63,804.713 1555.1,803.465C1554.16,801.28 1554.32,797.232 1554.32,795.012C1554.32,794.662 1555.01,794.79 1555.26,794.543C1556.07,793.729 1556.86,792.909 1557.6,792.038C1558.39,791.121 1559.01,789.817 1559.95,789.064C1562.78,786.8 1567.76,789.717 1570.91,790.003C1573.77,790.263 1576.85,789.531 1579.67,790.003C1583.47,790.636 1585.93,795.263 1588.13,797.83C1589.49,799.418 1590.97,800.643 1590.63,802.995C1590.42,804.512 1588.72,805.972 1587.97,807.222C1586.72,809.306 1589.2,810.713 1586.41,811.762C1584.54,812.46 1582.71,813.311 1580.77,813.797C1580.49,813.866 1578.74,813.488 1578.74,813.797" style="fill:none;stroke:black;stroke-width:6px;"/>
        <path d="M1636.97,820.79C1634.43,819.098 1634.38,822.808 1633.68,824.911C1632.57,828.23 1630.79,835.297 1634.46,837.747C1636.13,838.86 1637.81,837.82 1639.16,836.807C1642.08,834.619 1644.13,830.721 1647.3,829.137C1648.61,828.48 1649.96,831.488 1650.59,832.111C1651.41,832.936 1653.87,832.299 1654.97,832.737C1658.9,834.309 1657.46,840.325 1658.1,843.538C1658.62,846.152 1662.75,846.347 1664.52,847.608C1667.72,849.895 1669.74,854.444 1673.75,850.426C1674.21,849.967 1674.65,849.575 1675.01,849.017C1676.82,846.161 1678.04,840.672 1677.67,837.277C1677.55,836.191 1676.07,833.75 1676.57,832.737C1677.58,830.717 1679.4,829.509 1676.73,827.102C1673.3,824.021 1667.97,822.978 1663.74,821.467C1660.02,820.139 1657.02,817.583 1653.72,815.518C1650.63,813.591 1646.46,814.541 1643.86,816.771C1642.98,817.524 1642.12,819.593 1641.19,820.058C1641.03,820.141 1640.27,820.116 1640.1,820.058C1639.19,819.754 1632.63,819.322 1634.93,821.623" style="fill:none;stroke:black;stroke-width:6px;"/>
        <path d="M1638.51,837.081C1638.28,836.879 1637.36,841.816 1637.12,842.599C1636.19,845.702 1634.78,849.19 1634.78,852.461C1634.78,853.098 1635.15,855.279 1635.87,855.279" style="fill:none;stroke:black;stroke-width:6px;"/>
        <path d="M1537.67,877.51L1537.67,865.028C1537.67,864.419 1549.84,861.527 1549.84,861.527L1561.38,858.851L1564.12,865.028L1564.12,879.169L1569.42,888.874L1574.14,883.923L1577.11,873.766L1578.72,865.028L1571.28,846.616L1558.44,841.109L1544.52,841.109L1534.24,850.516L1528.43,861.527L1532.43,873.766L1537.67,877.51Z" style="fill:white;"/>
        <path d="M1665.3,850.986C1664.43,849.637 1664.36,852.71 1664.05,853.87C1663.83,854.681 1663.53,855.435 1663.27,856.218C1662.86,857.43 1661.42,863.575 1659.98,863.575" style="fill:none;stroke:black;stroke-width:6px;"/>
        <path d="M1569.98,847.38C1569.7,847.054 1569.19,845.924 1569.19,846.356C1569.19,849.714 1566.38,855.742 1563.55,857.627C1560.85,859.425 1556.7,860.751 1553.53,861.384C1552.29,861.632 1551,860.688 1549.78,860.444C1546.78,859.844 1541.78,861.466 1539.13,862.793C1536.6,864.058 1536.53,868.911 1536.94,871.402C1537.06,872.117 1538.28,875.071 1537.57,875.785C1536.46,876.896 1533.51,877.524 1531.78,875.785C1530.41,874.42 1530.19,870.998 1529.43,869.211C1528.83,867.815 1528.07,866.454 1527.7,864.984C1526.98,862.074 1530.39,857.936 1531.46,855.435C1533.55,850.553 1535.23,846.409 1540.07,843.382C1547.3,838.864 1554.97,840.859 1562.77,841.973C1564.55,842.227 1566.83,842.125 1568.4,842.912C1570.06,843.741 1569.5,846.203 1570.6,847.295" style="fill:none;stroke:black;stroke-width:6px;"/>
        <path d="M1601.39,895.849L1605.71,888.743L1610.75,884.703L1613.41,879.866L1608.64,875.118L1616.49,858.851L1626.35,862.033L1632.26,867.987L1634.03,875.118L1626.35,875.118L1628.54,884.703L1623.97,892.754L1630.21,898.753L1630.21,905.19L1601.39,895.849Z" style="fill:rgb(234,55,186);"/>
        <path d="M1570.13,846.946C1570.1,846.922 1569.4,846.356 1569.34,846.356C1568.85,846.356 1569.64,847.301 1569.81,847.765C1570.18,848.755 1570.94,849.612 1571.38,850.583C1572.7,853.485 1573.7,856.488 1575.13,859.349C1576.36,861.789 1578.65,864.559 1579.05,867.332C1579.62,871.309 1575.91,875.741 1574.82,879.542C1574.13,881.95 1574.7,885.346 1572.63,886.899C1568.37,890.092 1568.07,887.119 1566.06,883.768C1565.35,882.583 1564.28,881.532 1563.55,880.325C1561.34,876.631 1562.52,869.386 1563.08,865.454C1563.27,864.147 1563.56,862.412 1562.77,861.227C1562.4,860.675 1560.7,859.818 1561.36,859.818L1562.14,859.818" style="fill:none;stroke:black;stroke-width:6px;"/>
        <path d="M1616.46,859.173C1615.28,859.317 1614.06,861.842 1613.49,862.793C1611.46,866.176 1610.36,870.292 1608.63,873.75C1608.12,874.771 1609.44,877.52 1610.36,877.977C1613.04,879.318 1616.3,877.996 1617.87,874.846C1618.7,873.183 1619.28,869.836 1622.41,871.402C1623.85,872.125 1624.52,873.786 1626.01,874.533C1627.19,875.123 1629.42,874.063 1630.71,874.063C1631.76,874.063 1633.85,874.333 1634.31,872.967C1635.35,869.836 1631.41,862.088 1627.89,861.384C1626.04,861.014 1623.86,860.875 1622.1,860.288C1620.14,859.635 1616.22,857.174 1614.58,860.444" style="fill:none;stroke:black;stroke-width:6px;"/>
        <path d="M1628.24,876.24C1628.07,875.282 1628.05,878.178 1628.05,879.151C1628.05,880.979 1628.78,884.031 1628.36,885.725C1628.03,887.023 1626.53,890.477 1625.38,891.047C1624.75,891.362 1624.22,891.36 1623.35,891.36C1623.23,891.36 1622.23,891.177 1622.41,891.36C1623.18,892.134 1622.56,894.018 1623.35,894.804C1624.04,895.491 1626,895.272 1626.95,895.587C1628.58,896.132 1630,897.352 1631.02,898.718C1631.68,899.598 1632.65,905.406 1630.86,904.51" style="fill:none;stroke:black;stroke-width:6px;"/>
        <path d="M1612.22,878.81C1612.4,880.844 1612.8,883.648 1611.92,885.412C1610.76,887.727 1605.93,888.283 1604.1,890.578C1602.87,892.103 1602.06,893.653 1602.06,895.587C1602.06,896.193 1602.37,898.604 1602.37,897.935" style="fill:none;stroke:black;stroke-width:6px;"/>
        <path d="M1640.64,877.51L1638.92,882.02L1645.41,885.819L1656.6,882.02L1665.51,888.743L1678.33,891.239L1678.33,883.923L1667.41,877.51L1663.93,871.077L1656.6,867.099L1647.2,875.225L1640.64,877.51Z" style="fill:rgb(64,125,140);"/>
        <path d="M1646.56,875.76C1641.91,874.549 1634.37,882.52 1640.41,884.786C1644.15,886.187 1647.78,884.698 1651.21,883.377C1655.87,881.585 1660.57,879.695 1665.61,879.307C1669.26,879.027 1674.11,879.687 1676.41,882.907C1677.75,884.782 1680.18,889.793 1676.41,890.734C1674.28,891.267 1673.36,889.62 1671.56,889.169C1668.32,888.358 1664.7,887.004 1662.17,884.473C1660.75,883.052 1658.08,880.872 1655.91,880.872" style="fill:none;stroke:black;stroke-width:6px;"/>
        <path d="M1646.15,885.521C1643.9,884.932 1644.13,891.387 1644.33,892.769C1644.79,896.014 1648.26,897.311 1651.06,897.622C1655.76,898.145 1659,895.744 1661.7,892.143C1661.96,891.796 1665.44,886.351 1663.42,886.351" style="fill:none;stroke:black;stroke-width:6px;"/>
        <path d="M1648.01,876.628C1646.26,870.771 1657.83,864.467 1662.17,867.723C1664.31,869.327 1665.38,873.02 1665.61,875.55C1665.69,876.366 1666.29,879.673 1665.93,879.307" style="fill:none;stroke:black;stroke-width:6px;"/>
        <path d="M1646.77,896.091C1646.48,895.059 1643.11,895.626 1642.29,895.743C1640.74,895.964 1638.9,895.882 1637.44,896.37C1636.16,896.796 1634.72,899.017 1633.52,899.813C1632.83,900.274 1628.96,902.944 1629.61,902.944" style="fill:none;stroke:black;stroke-width:6px;"/>
        <path d="M1654.26,898.246C1659.66,898.371 1665.6,902.263 1667.34,907.484C1668.22,910.14 1669.02,912.5 1669.68,915.154C1669.82,915.704 1670.52,917.446 1670.94,917.032" style="fill:none;stroke:black;stroke-width:6px;"/>
        <path d="M1511.39,897.378L1485.41,931.693L1638.57,1002.63L1666.23,949.104L1511.39,897.378Z" style="fill:rgb(86,77,77);stroke:black;stroke-width:6px;"/>
    </g>
</svg>
