<?xml version="1.0" encoding="UTF-8" standalone="no"?>
<!DOCTYPE svg PUBLIC "-//W3C//DTD SVG 1.1//EN" "http://www.w3.org/Graphics/SVG/1.1/DTD/svg11.dtd">
<svg width="100%" height="100%" viewBox="0 0 447 367" version="1.1" xmlns="http://www.w3.org/2000/svg" xmlns:xlink="http://www.w3.org/1999/xlink" xml:space="preserve" xmlns:serif="http://www.serif.com/" style="fill-rule:evenodd;clip-rule:evenodd;stroke-linecap:round;stroke-linejoin:round;stroke-miterlimit:1.5;">
    <g transform="matrix(1,0,0,1,-367.578,-532.201)">
        <g transform="matrix(1.29205,0,0,1.43767,-101.92,-282.974)">
            <path d="M658.534,652.29C658.534,629.15 637.63,610.364 611.882,610.364L507.097,610.364C481.349,610.364 460.445,629.15 460.445,652.29L460.445,736.143C460.445,759.282 481.349,778.069 507.097,778.069L524.824,778.069L522.701,808.452L554.537,778.069L611.882,778.069C637.63,778.069 658.534,759.282 658.534,736.143L658.534,652.29Z" style="fill:white;"/>
        </g>
        <g transform="matrix(1.63288,0,0,1.63288,-463.703,-455.075)">
            <circle cx="658.915" cy="734.608" r="21.191" style="fill:rgb(234,55,186);"/>
        </g>
        <path d="M494.791,650.847C494.736,655.029 495.111,659.224 494.791,663.394C493.041,686.132 492.606,685.873 492.002,708.705C491.71,719.74 490.935,730.759 490.62,741.794C489.754,772.111 488.59,800.398 514.596,822.721C526.177,832.662 572.078,837.782 572.869,839.612C573.815,841.8 572.216,844.345 572.167,846.728C571.997,855.091 569.677,877.205 570.301,879.895C570.511,880.801 577.449,871.537 580.048,868.128C583.758,863.26 587.691,858.557 591.768,853.991C593.458,852.099 609.554,834.336 614.689,832.786C618.171,831.735 642.586,835.479 644.664,835.574C679.213,837.157 722.56,842.966 740.464,806.013C754.614,776.809 757.314,684.619 741.523,631.987C732.364,601.461 703.595,594.462 702.071,594.185C663.685,587.186 622.029,596.304 585.074,595.811C571.036,595.624 551.747,593.033 536.462,596.928C519.556,601.237 515.835,607.584 503.474,619.878C500.283,623.051 494.246,651.391 494.791,650.847Z" style="fill:none;stroke:black;stroke-width:4px;"/>
        <g transform="matrix(1,0,0,1,1.13132,0)">
            <g transform="matrix(1,-0,-0,1,366.446,532.201)">
                <path d="M311.604,85.612L386.103,59.248L362.494,134.666C362.035,109.68 336.59,85.153 311.604,85.612Z" style="fill:rgb(209,199,199);"/>
                <path d="M99.961,124.811C99.961,124.811 302.7,158.714 321.809,192.449C349.288,240.957 273.153,269.796 245.433,266.243C201.625,260.628 164.207,222.174 182.513,185.705C189.869,171.048 258.379,131.749 288.014,124.384C334.439,112.847 346.86,99.961 346.86,99.961" style="fill:none;stroke:rgb(209,199,199);stroke-width:14.02px;stroke-linecap:butt;stroke-linejoin:miter;"/>
            </g>
        </g>
        <path d="M617.022,681.081C616.171,681.117 618.306,679.923 619.075,679.556C621.23,678.53 623.543,677.875 625.735,676.931C631.903,674.276 637.969,671.387 644.151,668.763C653.366,664.852 662.544,660.832 671.922,657.328C681.366,653.799 691.271,651.532 700.585,647.675C706.031,645.419 710.819,641.816 716.03,639.061C725.53,634.038 729.342,667.887 730.287,668.169C731.248,668.456 734.03,657.765 735.188,653.912C738.882,641.624 742.26,629.243 745.881,616.933C747.706,610.728 749.669,604.565 751.524,598.369C752.144,596.297 755.005,589.807 754.197,589.161C753.447,588.561 748.59,593.717 746.475,594.508C733.839,599.23 721.143,603.799 708.345,608.065C702.274,610.089 695.964,611.346 689.892,613.369C686.482,614.505 677.215,617.807 677.417,618.715C677.622,619.634 683.921,618.452 685.734,618.715C693.753,619.879 697.655,621.825 705.04,624.952C706.955,625.763 711.322,627.258 709.941,628.814C702.657,637.022 686.403,638.268 677.12,641.586C664.472,646.105 652.188,651.6 639.547,656.14C624.255,661.632 605.68,664.165 593.508,676.337" style="fill:none;stroke:black;stroke-width:4px;"/>
        <path d="M613.281,711.096C601.413,711.658 589.583,715.917 583.549,726.902C580.192,733.016 580.666,739.658 582.131,746.263C585.048,759.404 591.864,775.557 606.992,778.139C614.31,779.388 621.702,776.553 627.727,772.604C641.359,763.667 651.353,746.799 645.48,730.485C640.984,717.994 624.932,713.037 613.281,711.096Z" style="fill:none;stroke:black;stroke-width:4px;stroke-linecap:butt;stroke-linejoin:miter;"/>
        <path d="M470.819,650.324C469.634,649.738 469.123,652.463 468.82,653.749C468.071,656.929 467.297,660.105 466.669,663.311C466.5,664.175 465.65,665.532 466.43,665.941C467.983,666.754 469.94,665.829 471.689,665.941C476.16,666.227 480.65,666.443 485.076,667.136C500.504,669.552 515.943,671.996 531.213,675.264C555.802,680.526 580.092,687.102 604.602,692.715C622.951,696.917 625.298,695.083 641.509,703.127C646.754,705.729 651.366,709.462 656.477,712.317C669.533,719.609 685.81,723.194 687.491,740.421C689.516,761.18 674.925,775.915 656.433,782.078C625.284,792.457 573.369,788.61 558.943,752.956C549.483,729.575 559.895,705.154 581.653,694.388C584.528,692.966 587.052,690.085 590.259,690.085" style="fill:none;stroke:black;stroke-width:4px;"/>
        <path d="M470.056,650.738C469.291,650.473 471.601,651.273 472.406,651.359C474.31,651.561 476.234,651.46 478.143,651.598C483.965,652.018 489.851,651.994 495.594,653.032C513.268,656.226 530.952,659.691 548.186,664.746C559.992,668.208 571.636,672.255 583.566,675.264C589.358,676.725 595.435,676.788 601.256,678.133C608.703,679.853 616.041,682.052 623.3,684.445C638.204,689.358 656.875,694.669 670.556,702.871C689.141,714.015 703.748,736.174 699.506,758.215C695.592,778.559 674.389,790.925 656.997,798.268C642.879,804.228 627.608,807.553 612.252,805.309C575.01,799.866 534.679,767.296 542.295,726.368C543.462,720.101 545.746,714.038 548.425,708.253C552.712,698.996 569.692,690.203 576.845,685.569" style="fill:none;stroke:black;stroke-width:4px;"/>
    </g>
</svg>
