<?xml version="1.0" encoding="UTF-8" standalone="no"?>
<!DOCTYPE svg PUBLIC "-//W3C//DTD SVG 1.1//EN" "http://www.w3.org/Graphics/SVG/1.1/DTD/svg11.dtd">
<svg width="100%" height="100%" viewBox="0 0 268 292" version="1.1" xmlns="http://www.w3.org/2000/svg" xmlns:xlink="http://www.w3.org/1999/xlink" xml:space="preserve" xmlns:serif="http://www.serif.com/" style="fill-rule:evenodd;clip-rule:evenodd;stroke-linecap:round;stroke-linejoin:round;stroke-miterlimit:1.5;">
    <g transform="matrix(1,0,0,1,-456.765,-146.761)">
        <g transform="matrix(1.29205,0,0,1.43767,-133.591,-726.795)">
            <path d="M658.534,652.29C658.534,629.15 637.63,610.364 611.882,610.364L507.097,610.364C481.349,610.364 460.445,629.15 460.445,652.29L460.445,736.143C460.445,759.282 481.349,778.069 507.097,778.069L524.824,778.069L522.701,808.452L554.537,778.069L611.882,778.069C637.63,778.069 658.534,759.282 658.534,736.143L658.534,652.29Z" style="fill:white;"/>
        </g>
        <g transform="matrix(1.58281,0,0,1,-500.025,-132.926)">
            <path d="M714.104,404.355L748.941,387.044L748.941,420.809L714.104,404.355Z" style="fill:rgb(209,199,199);"/>
        </g>
        <g transform="matrix(1.23347,-0.99188,0.626658,0.779294,-503.956,626.651)">
            <path d="M714.104,404.355L748.941,387.044L748.941,420.809L714.104,404.355Z" style="fill:rgb(209,199,199);"/>
        </g>
        <g transform="matrix(1.09285,1.14497,-0.723379,0.690452,143.7,-803.713)">
            <path d="M714.104,404.355L748.941,387.044L748.941,420.809L714.104,404.355Z" style="fill:rgb(209,199,199);"/>
        </g>
        <g transform="matrix(-1.39591,-0.746138,0.471401,-0.881919,1343.62,1143.55)">
            <path d="M714.104,404.355L748.941,387.044L748.941,420.809L714.104,404.355Z" style="fill:rgb(209,199,199);"/>
        </g>
        <g transform="matrix(-1.55965,0.269749,-0.170424,-0.985371,1720.43,483.89)">
            <path d="M714.104,404.355L748.941,387.044L748.941,420.809L714.104,404.355Z" style="fill:rgb(209,199,199);"/>
        </g>
        <g transform="matrix(-1.28794,0.920049,-0.581276,-0.813707,1702.08,-14.3519)">
            <path d="M714.104,404.355L748.941,387.044L748.941,420.809L714.104,404.355Z" style="fill:rgb(209,199,199);"/>
        </g>
        <g transform="matrix(1.31507,0,0,1.31507,86.1059,-667.5)">
            <path d="M343.754,675.474L354.576,688.669L372.363,671.937L377.063,760.699L358.152,760.065L357.818,775.89L401.979,776.89L404.492,760.909L388.947,759.216L385.007,654.955L372.153,653.384L343.754,675.474Z" style="fill:rgb(234,55,186);"/>
        </g>
        <g transform="matrix(1.3357,0,0,1.3357,-135.237,-709.378)">
            <path d="M520.631,778.753C519.079,778.377 519.631,786.72 519.552,787.432C519.386,788.921 518.162,794.125 519.372,795.335C519.466,795.429 536.766,795.22 544.999,794.191C550.969,793.445 555.621,793.566 561.301,794.986C561.546,795.047 562.899,795.774 563.289,795.384C563.336,795.336 562.891,789.781 562.891,789.022C562.891,787.741 565.433,780.828 565.277,780.672C563.077,778.472 554.221,781.942 551.758,779.479C550.671,778.392 550.914,768.501 550.566,766.756C549.473,761.295 551.021,714.221 548.577,699.56C548.186,697.211 547.428,676.542 546.589,675.704C546.45,675.564 530.367,673.079 528.697,672.523C528.32,672.397 529.095,672.523 528.697,672.523C528.107,672.523 517.525,684.579 512.395,688.427C511.555,689.057 507.348,692.25 508.021,693.596C508.721,694.995 514.622,705.922 515.576,705.922C516.94,705.922 521.964,698.745 523.528,697.572C526.381,695.432 531.48,690.415 531.48,690.415C531.48,690.415 531.55,694.414 531.878,696.379C532.621,700.836 532.725,705.436 533.468,709.898C536.085,725.6 534.152,751.044 535.451,756.241C536.097,758.826 538.998,780.18 538.998,780.18C538.998,780.18 520.631,776.734 520.631,778.753Z" style="fill:none;stroke:black;stroke-width:2.99px;"/>
        </g>
        <g transform="matrix(1,0,0,1,-74.4689,-147.851)">
            <path d="M544.062,328.776C542.903,328.113 538.734,342.439 538.495,344.085C536.049,360.973 537.104,377.193 535.16,394.146C531.357,427.328 534.094,444.298 535.651,477.687C536.363,492.943 541.098,504.414 550.436,516.806C565,536.13 581.197,536.821 590.988,538.47C595.203,539.179 616.987,538.647 621.274,538.324C624.381,538.09 622.375,553.207 621.274,564.631C620.725,570.331 616.28,584.288 616.28,584.288C616.28,584.288 649.433,549.392 658.049,540.66C659.036,539.659 670.577,542.364 673.924,542.542C685.78,543.175 690.744,542.816 702.615,543.037C727.148,543.495 758.198,543.237 775.06,522.08C785.426,509.074 788.762,493.377 790.484,477.065C794.746,436.688 799.8,394.653 795.066,354.738C792.89,336.393 779.003,310.738 757.202,304.782C730.932,297.604 703.538,297.031 676.492,297.398C648.548,297.776 621.148,294.633 593.508,298.783C581.572,300.575 566.756,302.911 557.776,311.871C553.2,316.436 543.57,328.776 544.062,328.776Z" style="fill:none;stroke:black;stroke-width:4px;"/>
        </g>
        <g transform="matrix(1,0,0,1,-74.4689,-147.851)">
            <path d="M569.562,480.156C564.983,479.752 577.778,497.775 578.968,500.156C579.441,501.102 585.819,512.392 585.852,512.359C587.29,510.921 588.911,505.777 590.545,503.598C596.81,495.245 602.865,486.876 609.632,478.878C612.624,475.342 614.773,471.108 617.768,467.614C619.454,465.647 622.774,461.669 622.774,461.669C622.774,461.669 619.7,462.92 618.081,462.92C614.618,462.92 611.236,464.411 607.755,464.798C598.317,465.846 587.779,470.561 579.281,474.811C576.195,476.354 572.941,477.668 569.894,479.191C568.722,479.777 568.775,480.156 569.562,480.156Z" style="fill:none;stroke:black;stroke-width:4px;"/>
        </g>
        <g transform="matrix(1,0,0,1,-74.4689,-147.851)">
            <path d="M554.335,417.4C551.019,416.039 554.296,421.663 554.875,424.746C556.167,431.641 557.471,438.532 558.942,445.398C559.53,448.142 560.194,451.375 560.194,454.159L560.194,455.724C560.194,455.724 562.95,452.423 564.575,451.03C567.707,448.345 571.691,446.259 575.213,444.146C582.596,439.717 590.671,436.105 598.368,432.256C600.909,430.985 611.933,428.328 613.89,426.371C614.646,425.615 600.905,425.795 600.245,425.685C595.739,424.934 591.755,423.021 587.104,422.556C579.158,421.761 570.896,420.866 563.01,419.74C560.582,419.393 554.722,417.389 554.249,417.862" style="fill:none;stroke:black;stroke-width:4px;"/>
        </g>
        <g transform="matrix(1,0,0,1,-74.4689,-147.851)">
            <path d="M572.174,360.602C566.595,362.294 564.744,372.417 562.697,376.246C560.555,380.254 557.966,384.007 555.5,387.824C554.789,388.925 553.076,390.385 552.997,391.891C552.955,392.695 563.371,393.009 565.513,393.456C571.201,394.643 576.716,396.557 582.372,397.886C588.947,399.431 592.887,399.747 599.62,400.027C602.713,400.156 603.443,399.553 606.503,400.34C607.181,400.514 608.714,401.894 608.381,401.279C606.909,398.562 605.315,397.347 603.374,395.02C593.222,382.851 583.8,371.248 572.174,360.602Z" style="fill:none;stroke:black;stroke-width:4px;"/>
        </g>
        <g transform="matrix(1,0,0,1,-74.4689,-147.851)">
            <path d="M706.987,378.784C706.461,379.101 705.381,379.688 705.381,379.688C705.381,379.688 706.263,379.118 706.632,378.75C708.319,377.063 709.82,374.999 711.326,373.117C714.827,368.741 718.106,364.241 721.339,359.663C723.735,356.267 725.768,352.592 727.909,349.024C728.983,347.236 735.212,331.241 737.609,332.44C739.078,333.174 742.686,339.057 743.868,340.576C745.348,342.479 746.855,344.189 748.561,345.895C750.68,348.014 759.513,354.755 759.513,358.098L758.261,358.098C756.672,358.098 754.842,358.953 753.255,359.35C749.718,360.234 746.35,361.57 742.929,362.792C734.677,365.738 727.074,370.684 718.835,373.43C715.253,374.624 711.342,376.34 708.197,378.437C707.11,379.161 704.029,380.94 704.129,380.94" style="fill:none;stroke:black;stroke-width:4px;"/>
        </g>
        <g transform="matrix(1,0,0,1,-74.4689,-147.851)">
            <path d="M708.771,417.934C703.712,419.309 727.13,412.803 728.848,412.23C736.171,409.789 744.245,407.148 751.69,405.659C752.548,405.488 758.129,403.831 758.261,404.095C759.948,407.469 758.261,415.717 758.261,419.427C758.261,421.765 761.232,433.353 759.2,435.385C758.713,435.872 749.858,430.8 748.874,430.378C741.21,427.094 732.378,425.928 724.155,424.433C719.664,423.617 715.002,423.698 711.013,421.304C709.613,420.464 705.818,418.488 706.319,418.488" style="fill:none;stroke:black;stroke-width:4px;"/>
        </g>
        <g transform="matrix(1,0,0,1,-74.4689,-147.851)">
            <path d="M704.755,439.453C698.629,435.961 711.19,455.585 711.639,456.662C715.143,465.073 720.329,472.534 723.529,481.069C724.242,482.971 726.505,488.784 728.222,490.143C732.701,493.685 741.951,481.692 744.534,479.579C747.417,477.22 757.677,469.689 757.677,468.081C757.677,468.029 749.949,464.274 748.561,463.233C745.128,460.658 742.008,457.253 738.235,455.098C732.226,451.664 724.716,451.311 718.522,448.214C714.895,446.4 704.619,439.453 704.755,439.453Z" style="fill:none;stroke:black;stroke-width:4px;"/>
        </g>
    </g>
</svg>
