<?xml version="1.0" encoding="UTF-8" standalone="no"?>
<!DOCTYPE svg PUBLIC "-//W3C//DTD SVG 1.1//EN" "http://www.w3.org/Graphics/SVG/1.1/DTD/svg11.dtd">
<svg width="100%" height="100%" viewBox="0 0 248 387" version="1.1" xmlns="http://www.w3.org/2000/svg" xmlns:xlink="http://www.w3.org/1999/xlink" xml:space="preserve" xmlns:serif="http://www.serif.com/" style="fill-rule:evenodd;clip-rule:evenodd;stroke-linecap:round;stroke-linejoin:round;stroke-miterlimit:1.5;">
    <g transform="matrix(1,0,0,1,-123.81,-211.193)">
        <g transform="matrix(0.686978,0,0,0.633271,-122.99,75.0577)">
            <path d="M563.858,279.865C648.575,279.865 693.327,325.776 693.327,444.769C693.327,563.762 649.015,666.84 564.297,666.84C479.58,666.84 430.413,570.492 430.413,451.499C430.413,332.506 479.14,279.865 563.858,279.865Z" style="fill:white;"/>
        </g>
        <g transform="matrix(0.992531,0.121996,-0.121996,0.992531,-179.976,-64.3483)">
            <path d="M410.343,406.171C410.343,406.171 402.147,397.908 395.573,403.384C389,408.86 403.428,424.365 410.325,431.961C417.306,439.648 417.116,454.034 420.393,452.852C424.825,451.253 427.243,441.898 427.243,441.898L410.343,406.171Z" style="fill:white;"/>
        </g>
        <g transform="matrix(-0.933087,0.35965,0.35965,0.933087,582.855,-161.026)">
            <path d="M410.343,406.171C410.343,406.171 402.147,397.908 395.573,403.384C389,408.86 403.428,424.365 410.325,431.961C417.306,439.648 417.116,454.034 420.393,452.852C424.825,451.253 427.243,441.898 427.243,441.898L410.343,406.171Z" style="fill:white;"/>
        </g>
        <g transform="matrix(0.686978,0,0,0.686978,-141.42,69.7045)">
            <path d="M386.268,363.267C384.193,403.28 399.471,428.076 430.413,428.712C461.355,429.348 516.404,366.977 561.87,355.411C607.336,343.845 661.491,334.161 693.327,348.909C725.164,363.657 742.512,354.153 746.351,317.009C750.19,279.865 731.236,234.636 657.816,232.933C584.396,231.23 463.077,242.995 430.413,279.865C397.749,316.734 388.344,323.253 386.268,363.267Z"/>
        </g>
        <g transform="matrix(1.4559,0,0,1.65926,-429.86,-194.011)">
            <path d="M460.056,261.466C460.056,261.466 442.783,251.151 449.034,247.165C455.284,243.179 460.056,261.466 460.056,261.466Z" style="fill:none;stroke:black;stroke-width:5.08px;"/>
        </g>
        <g transform="matrix(1.23278,-0.31182,0.31182,1.23278,-388.994,-72.1038)">
            <path d="M379.089,447.702C389.357,447.702 394.856,455.905 394.856,455.905C394.856,455.905 388.802,463.064 378.534,463.064C368.265,463.064 365.837,454.976 365.837,454.976C365.837,454.976 368.82,447.702 379.089,447.702Z" style="fill:white;"/>
            <clipPath id="_clip1">
                <path d="M379.089,447.702C389.357,447.702 394.856,455.905 394.856,455.905C394.856,455.905 388.802,463.064 378.534,463.064C368.265,463.064 365.837,454.976 365.837,454.976C365.837,454.976 368.82,447.702 379.089,447.702Z"/>
            </clipPath>
            <g clip-path="url(#_clip1)">
                <g transform="matrix(0.673512,0,0,0.673512,149.293,167.303)">
                    <circle cx="346.715" cy="427.453" r="13.735" style="fill:rgb(61,147,75);"/>
                </g>
                <g transform="matrix(0.296419,0,0,0.296419,280.037,328.493)">
                    <circle cx="346.715" cy="427.453" r="13.735"/>
                </g>
            </g>
        </g>
        <g transform="matrix(1.23278,-0.31182,0.31182,1.23278,-315.05,-89.6387)">
            <path d="M379.089,447.702C389.357,447.702 394.856,455.905 394.856,455.905C394.856,455.905 388.802,463.064 378.534,463.064C368.265,463.064 365.837,454.976 365.837,454.976C365.837,454.976 368.82,447.702 379.089,447.702Z" style="fill:white;"/>
            <clipPath id="_clip2">
                <path d="M379.089,447.702C389.357,447.702 394.856,455.905 394.856,455.905C394.856,455.905 388.802,463.064 378.534,463.064C368.265,463.064 365.837,454.976 365.837,454.976C365.837,454.976 368.82,447.702 379.089,447.702Z"/>
            </clipPath>
            <g clip-path="url(#_clip2)">
                <g transform="matrix(0.673512,0,0,0.673512,149.293,167.303)">
                    <circle cx="346.715" cy="427.453" r="13.735" style="fill:rgb(60,146,74);"/>
                </g>
                <g transform="matrix(0.296419,0,0,0.296419,280.037,328.493)">
                    <circle cx="346.715" cy="427.453" r="13.735"/>
                </g>
            </g>
        </g>
        <g transform="matrix(0.728615,0,0,0.576119,-112.239,140.562)">
            <path d="M462.576,387.693C466.304,387.693 469.33,390.719 469.33,394.447C469.33,398.175 458.848,387.693 462.576,387.693Z" style="fill:white;"/>
        </g>
        <g transform="matrix(0.728615,0,0,0.576119,-37.7212,124.929)">
            <path d="M462.576,387.693C466.304,387.693 469.33,390.719 469.33,394.447C469.33,398.175 458.848,387.693 462.576,387.693Z" style="fill:white;"/>
        </g>
        <g transform="matrix(1,0,0,1,-236.641,-21.6369)">
            <path d="M477.799,386.784C475.039,385.246 472.93,383.196 469.631,382.371C458.124,379.494 440.494,385.726 438.645,398.671" style="fill:none;stroke:black;stroke-width:4px;"/>
        </g>
        <g transform="matrix(1,0,0,1,-236.641,-21.6369)">
            <path d="M511.613,379.817C511.907,376.695 515.083,373.977 517.319,371.881C522.082,367.415 528.57,366.475 534.835,366.011C537.814,365.79 540.789,365.789 543.653,366.744C546.916,367.831 548.945,370.935 551.972,372.449" style="fill:none;stroke:black;stroke-width:4px;"/>
        </g>
        <g transform="matrix(0.986897,0.161353,-0.161353,0.986897,-87.5576,-120.779)">
            <path d="M489.409,385.9C489.409,385.9 469.535,379.099 451.571,385.861C433.607,392.622 433.607,399.738 433.607,399.738L423.784,385.9C423.784,385.9 440.05,372.2 451.571,372.552C463.092,372.904 489.409,385.9 489.409,385.9Z"/>
        </g>
        <g transform="matrix(-0.909491,0.415723,0.415723,0.909491,475.505,-187.023)">
            <path d="M489.409,385.9C489.409,385.9 473.137,375.637 455.173,382.398C437.209,389.159 433.607,399.738 433.607,399.738L424.345,387.931C424.345,387.931 438.747,376.23 450.613,371.176C461.218,366.66 489.409,385.9 489.409,385.9Z"/>
        </g>
        <g transform="matrix(1,0,0,1,-236.441,-39.4798)">
            <path d="M478.15,493.886C478.15,493.886 493.27,484.459 499.104,484.341C504.938,484.224 509.367,488.606 509.367,488.606C509.367,488.606 510.853,483.603 515.242,483.078C519.631,482.553 535.493,489.305 535.493,489.305C535.493,489.305 519.631,506.558 509.367,506.558C499.104,506.558 478.15,493.886 478.15,493.886Z" style="fill:rgb(234,55,186);"/>
        </g>
        <g transform="matrix(1,0,0,1,-236.641,-21.6369)">
            <path d="M409.853,374.435C407.999,376.633 409.61,383.078 410.256,385.501C411.615,390.596 412.467,395.691 413.332,400.877C413.775,403.535 415.132,407.996 414.21,410.761C413.688,412.329 412.002,410.299 411.574,409.443C409.297,404.889 401.562,402.463 399.274,408.564C397.32,413.774 400.406,418.609 403.228,422.842C407.931,429.897 411.693,437.593 415.748,445.027C417.78,448.753 420.42,453.174 421.459,457.328C421.704,458.307 421.889,460.394 422.557,461.062C423.596,462.1 424.537,454.583 426.072,455.351C427.946,456.288 428.187,461 429.147,462.599C432.328,467.901 435.688,473.151 439.47,478.195C451.166,493.789 469.036,508.932 488.892,512.241C493.316,512.978 495.462,511.076 499.216,509.825C501.082,509.203 504.706,511.186 506.684,511.582C510.885,512.422 516.271,510.193 520.083,508.727C540.095,501.03 552.676,482.169 566.211,466.553C572.776,458.978 577.318,449.823 581.147,440.634C581.703,439.298 583.426,432.241 585.54,432.946C586.919,433.406 589.538,436.768 591.031,436.021C591.889,435.592 591.69,431.818 591.69,430.969C591.69,425.866 590.938,420.464 590.372,415.374C589.145,404.323 595.491,395.8 596.962,385.501C597.48,381.875 592.735,377 589.055,378.472C588.477,378.703 585.019,381.823 584.442,380.668C583.797,379.379 584.654,376.428 584.881,375.177C585.592,371.269 585.979,367.277 586.199,363.316C586.651,355.182 586.553,346.221 584.661,338.275C583.902,335.085 580.927,330.485 580.927,327.293" style="fill:none;stroke:black;stroke-width:4px;"/>
        </g>
        <g transform="matrix(1,0,0,1,-242.269,-27.9069)">
            <path d="M460.805,408.428C460.805,408.428 465.366,409.436 467.416,408.855C469.466,408.274 473.105,404.941 473.105,404.941L475.27,432.109L460.805,408.428Z"/>
        </g>
        <g transform="matrix(0.992775,0.11999,-0.11999,0.992775,-113.317,-100.603)">
            <path d="M460.805,408.428C460.805,408.428 465.366,409.436 467.416,408.855C469.466,408.274 473.105,404.941 473.105,404.941L475.27,432.109L460.805,408.428Z"/>
        </g>
        <g transform="matrix(1,0,0,1,-236.641,-21.6369)">
            <path d="M476.784,476.58C475.792,476.85 476.142,476.696 476.784,476.58C483.994,482.674 486.825,485.42 491.871,486.871C500.283,489.291 508.961,488.987 517.4,486.881C520.431,486.124 523.559,485.378 526.29,483.807C530.964,481.116 533.862,476.683 538.06,473.532C539.079,472.768 540.819,470.647 541.882,469.977" style="fill:none;stroke:black;stroke-width:4px;"/>
        </g>
        <g transform="matrix(1,0,0,1,-236.641,-21.6369)">
            <path d="M473.562,476.605C473.384,476.534 472.797,476.573 472.988,476.573C475.322,476.573 477.546,477.487 479.903,477.363C483.451,477.176 486.766,473.941 489.189,471.634C492.595,468.39 498.655,461.228 503.907,466.003C504.918,466.922 505.522,468.347 505.784,469.658C505.869,470.081 505.767,471.419 506.081,471.733C506.353,472.005 506.319,470.998 506.476,470.646C506.894,469.706 507.505,468.773 508.155,467.979C509.942,465.795 512.625,463.097 515.564,462.645C520.068,461.952 522.054,466.863 524.652,469.461C528.083,472.892 537.331,471.027 541.882,469.977" style="fill:none;stroke:black;stroke-width:4px;"/>
        </g>
        <g transform="matrix(1,0,0,1,-236.641,-21.6369)">
            <path d="M488.006,431.08C485.794,431.412 491.247,436.266 491.618,436.526C495.699,439.383 501.513,441.009 506.508,439.856C511.43,438.721 516.625,436.592 520.247,432.971C521.318,431.899 521.907,430.593 522.492,429.228C522.855,428.38 522.305,427.113 522.305,427.544" style="fill:none;stroke:black;stroke-width:4px;"/>
        </g>
        <g transform="matrix(0.986876,-0.161482,0.161482,0.986876,-311.719,42.4709)">
            <g transform="matrix(0.28626,0,0,0.28626,155.948,225.532)">
                <path d="M1046.63,1403.58C1046.63,1403.58 1063.75,1355.49 1087.88,1300.95C1112,1246.41 1052.53,1194.35 1112,1143.72C1171.47,1093.08 1190.91,1096.75 1256.46,1083.76C1322.01,1070.78 1356.79,1084.02 1390.27,1110.16C1423.76,1136.29 1516.24,1172.41 1489.51,1218.47C1462.79,1264.53 1476.2,1280.14 1398.41,1253.52C1320.62,1226.89 1296.34,1178.15 1252.72,1229C1209.11,1279.86 1214.5,1369.99 1214.5,1369.99L1213.74,1464.42L1046.63,1403.58Z" style="fill:white;"/>
            </g>
            <g transform="matrix(0.28626,0,0,0.28626,142.946,224.183)">
                <path d="M1234.61,1446.54C1234.61,1446.54 1245.34,1435.44 1256.69,1430.94C1278.62,1422.24 1316.36,1423.5 1332.25,1391.77C1356.12,1344.1 1359.45,1298.5 1376.38,1271.57C1393.3,1244.64 1411.02,1138.4 1443.06,1138.4C1475.1,1138.4 1486.24,1114.56 1458.47,1093.04C1430.7,1071.52 1410.23,1095.49 1384.39,1113.65C1356.92,1132.96 1224.5,1180.96 1198.76,1226.26C1173.01,1271.57 1174.47,1421.82 1174.47,1421.82L1234.61,1446.54Z" style="fill:white;"/>
            </g>
            <g transform="matrix(0.28626,0,0,0.28626,155.948,225.532)">
                <path d="M1198.76,1138.4L1221.31,834C1221.31,834 1207.67,789.213 1239.07,789.213C1270.46,789.213 1270.46,828.691 1270.46,850.302L1270.46,1115.5L1198.76,1138.4Z" style="fill:white;"/>
            </g>
            <path d="M500.23,642.707C499.774,640.659 500.241,638.215 500.335,636.167C500.692,628.295 501.46,620.412 502.758,612.628C503.683,607.075 504.757,601.662 506.046,596.185C507.479,590.095 508.512,583.901 510.027,577.839C510.276,576.845 510.637,572.687 511.758,572.127C515.276,570.368 523.27,573.365 526.643,574.377C534.116,576.619 541.7,579.339 548.97,582.166C553.207,583.814 558.739,587.162 563.402,586.701C570.56,585.992 566.341,576.347 563.059,573.726C559.479,570.866 553.924,569.69 549.653,568.156C540.646,564.922 531.64,561.738 522.826,558.003C519.725,556.688 516.419,555.807 513.268,554.611C512.738,554.41 510.48,553.931 510.812,553.071C511.3,551.811 515.822,555.08 516.524,555.397C519.736,556.845 523.383,557.438 526.695,558.655C538.71,563.068 551.023,567.88 561.882,574.74C566.347,577.561 572.186,582.73 577.861,580.205C585.076,576.995 577.584,566.782 573.407,564.406C566.483,560.465 558.668,558.47 551.172,555.936C546.897,554.49 542.871,552.461 538.622,550.982C534.665,549.606 528.463,549.306 525.099,546.78C524.615,546.417 526.229,547.209 526.791,547.434C527.852,547.86 528.887,548.346 529.948,548.773C533.051,550.021 536.249,551.002 539.415,552.074C550.109,555.695 560.188,560.914 570.883,564.522C573.232,565.315 582.864,566.781 579.297,561.363C578.886,560.739 578.386,560.205 577.875,559.665C574.481,556.08 569.648,554.238 565.586,551.53C559.627,547.557 554.044,542.603 547.413,539.761C537.52,535.521 527.624,535.03 517.123,534.222C510.855,533.74 506.135,534.161 500.161,535.953C499.498,536.152 495.577,536.557 495.142,536.992C486.57,545.564 476.777,554.357 466.93,561.742C462.048,565.403 465.831,571.732 466.584,576.627C467.959,585.566 469.261,596.176 465.891,604.839C463.442,611.139 459.458,615.908 456.026,621.628C455.097,623.177 451.834,630.666 452.218,630.282" style="fill:none;stroke:black;stroke-width:4px;"/>
            <g transform="matrix(1,0,0,1,-9.55134,-5.44894)">
                <path d="M510.862,632.216C519.223,632.739 526.48,628.209 532.34,622.348C540.783,613.905 541.776,606.194 544.34,595.297C544.982,592.566 546.268,590.234 547.814,587.915C548.201,587.334 549.397,585.31 550.13,585.31" style="fill:none;stroke:black;stroke-width:4px;"/>
            </g>
            <g transform="matrix(1,0,0,1,-8.62601,-7.87239)">
                <path d="M556.384,544.844C555.429,544.648 559.407,543.844 559.828,543.765C562.394,543.284 565.632,542.64 568.224,543.331C574.815,545.089 573.611,550.566 570.251,554.766" style="fill:none;stroke:black;stroke-width:4px;"/>
            </g>
            <path d="M501.794,536.448C500.853,534.888 501.19,532.765 501.348,531.027C501.739,526.729 502.292,522.445 502.651,518.144C503.982,502.17 503.636,486.151 505.69,470.23C506.139,466.751 506.53,463.256 507.138,459.808C507.316,458.801 507.389,457.776 507.572,456.768C507.677,456.191 507.862,455.031 507.862,455.031C507.862,455.031 511.175,454.71 512.783,455.031C520.859,456.646 519.684,466.36 519.297,472.546C518.868,479.416 519.806,486.268 520.166,493.101C520.583,501.029 520.438,508.921 520.021,516.841C519.778,521.459 519.153,525.956 519.153,530.593C519.153,531.65 518.78,534.129 519.442,534.791" style="fill:none;stroke:black;stroke-width:4px;"/>
        </g>
        <g transform="matrix(1,0,0,1,-236.641,-21.6369)">
            <path d="M457.567,383.543C454.888,384.322 451.397,386.276 449.87,388.676C446.281,394.315 450.75,401.448 457.056,402.149C463.463,402.861 468.417,398.378 470.828,392.867C471.654,390.978 472.651,388.871 472.175,386.73C471.604,384.161 468.312,382.584 466.187,381.64" style="fill:none;stroke:black;stroke-width:4px;"/>
        </g>
        <g transform="matrix(1,0,0,1,-236.641,-21.6369)">
            <path d="M533.18,366.162C528.4,364.252 523.643,369.678 523.223,374.305C522.835,378.569 525.85,381.848 529.809,382.837C535.173,384.178 539.802,381.909 543.881,378.646C545.769,377.136 548.037,374.875 547.474,372.059C546.471,367.046 536.68,365.323 532.803,365.323" style="fill:none;stroke:black;stroke-width:4px;"/>
        </g>
    </g>
</svg>
